<?xml version="1.0" encoding="UTF-8"?>
<svg xmlns="http://www.w3.org/2000/svg" xmlns:xlink="http://www.w3.org/1999/xlink" width="1000px" height="px" viewBox="0 0 1000 1000" version="1.1">
<defs>
<linearGradient id="linear0" gradientUnits="userSpaceOnUse" x1="-74.1968" y1="-54.6484" x2="1001.2502" y2="984.5881" gradientTransform="matrix(0.985222,0,0,0.985222,0.669951,0.834483)">
<stop offset="0" style="stop-color:rgb(87.45098%,95.686275%,100%);stop-opacity:1;"/>
<stop offset="0.0984" style="stop-color:rgb(83.921569%,91.764706%,96.078431%);stop-opacity:1;"/>
<stop offset="0.2678" style="stop-color:rgb(74.901961%,81.568627%,85.098039%);stop-opacity:1;"/>
<stop offset="0.4879" style="stop-color:rgb(59.607843%,64.705882%,67.45098%);stop-opacity:1;"/>
<stop offset="0.7469" style="stop-color:rgb(39.215686%,41.960784%,43.137255%);stop-opacity:1;"/>
<stop offset="1" style="stop-color:rgb(16.862745%,16.862745%,16.862745%);stop-opacity:1;"/>
</linearGradient>
<radialGradient id="radial0" gradientUnits="userSpaceOnUse" cx="-6.3174" cy="33.522" fx="-6.3174" fy="33.522" r="720.1076" gradientTransform="matrix(0.985222,0,0,0.985222,0.669951,0.834483)">
<stop offset="0" style="stop-color:rgb(100%,100%,100%);stop-opacity:1;"/>
<stop offset="0.3064" style="stop-color:rgb(65.882353%,65.882353%,65.882353%);stop-opacity:1;"/>
<stop offset="0.6461" style="stop-color:rgb(30.980392%,30.980392%,30.980392%);stop-opacity:1;"/>
<stop offset="0.8853" style="stop-color:rgb(8.627451%,8.627451%,8.627451%);stop-opacity:1;"/>
<stop offset="1" style="stop-color:rgb(0%,0%,0%);stop-opacity:1;"/>
</radialGradient>
<linearGradient id="linear1" gradientUnits="userSpaceOnUse" x1="54.041" y1="304.8472" x2="738.989" y2="966.7329" gradientTransform="matrix(-0.985222,0,0,-0.985222,917.887291,1152.859803)">
<stop offset="0" style="stop-color:rgb(87.45098%,95.686275%,100%);stop-opacity:1;"/>
<stop offset="0.0855" style="stop-color:rgb(83.921569%,91.764706%,96.078431%);stop-opacity:1;"/>
<stop offset="0.2327" style="stop-color:rgb(74.509804%,81.568627%,85.098039%);stop-opacity:1;"/>
<stop offset="0.4239" style="stop-color:rgb(58.823529%,64.313725%,67.45098%);stop-opacity:1;"/>
<stop offset="0.6516" style="stop-color:rgb(37.254902%,40.784314%,42.745098%);stop-opacity:1;"/>
<stop offset="0.9075" style="stop-color:rgb(10.196078%,11.372549%,11.764706%);stop-opacity:1;"/>
<stop offset="1" style="stop-color:rgb(0%,0%,0%);stop-opacity:1;"/>
</linearGradient>
<radialGradient id="radial1" gradientUnits="userSpaceOnUse" cx="-135.6465" cy="-39.812" fx="-135.6465" fy="-39.812" r="1730.3135" gradientTransform="matrix(0.985222,0,0,0.985222,0.669951,0.834483)">
<stop offset="0" style="stop-color:rgb(100%,100%,100%);stop-opacity:1;"/>
<stop offset="0.3102" style="stop-color:rgb(99.215686%,99.215686%,99.215686%);stop-opacity:1;"/>
<stop offset="0.4505" style="stop-color:rgb(96.470588%,96.470588%,96.470588%);stop-opacity:1;"/>
<stop offset="0.5567" style="stop-color:rgb(91.372549%,91.372549%,91.372549%);stop-opacity:1;"/>
<stop offset="0.6456" style="stop-color:rgb(84.313725%,84.313725%,84.313725%);stop-opacity:1;"/>
<stop offset="0.7238" style="stop-color:rgb(74.901961%,74.901961%,74.901961%);stop-opacity:1;"/>
<stop offset="0.7944" style="stop-color:rgb(63.529412%,63.529412%,63.529412%);stop-opacity:1;"/>
<stop offset="0.8593" style="stop-color:rgb(50.196078%,50.196078%,50.196078%);stop-opacity:1;"/>
<stop offset="0.9199" style="stop-color:rgb(34.117647%,34.117647%,34.117647%);stop-opacity:1;"/>
<stop offset="0.9746" style="stop-color:rgb(16.862745%,16.862745%,16.862745%);stop-opacity:1;"/>
<stop offset="1" style="stop-color:rgb(7.843137%,7.843137%,7.843137%);stop-opacity:1;"/>
</radialGradient>
<radialGradient id="radial2" gradientUnits="userSpaceOnUse" cx="-135.7231" cy="-39.8115" fx="-135.7231" fy="-39.8115" r="1730.4609" gradientTransform="matrix(0.985222,0,0,0.985222,0.669951,0.834483)">
<stop offset="0" style="stop-color:rgb(100%,100%,100%);stop-opacity:1;"/>
<stop offset="0.3102" style="stop-color:rgb(99.215686%,99.215686%,99.215686%);stop-opacity:1;"/>
<stop offset="0.4505" style="stop-color:rgb(96.470588%,96.470588%,96.470588%);stop-opacity:1;"/>
<stop offset="0.5567" style="stop-color:rgb(91.372549%,91.372549%,91.372549%);stop-opacity:1;"/>
<stop offset="0.6456" style="stop-color:rgb(84.313725%,84.313725%,84.313725%);stop-opacity:1;"/>
<stop offset="0.7238" style="stop-color:rgb(74.901961%,74.901961%,74.901961%);stop-opacity:1;"/>
<stop offset="0.7944" style="stop-color:rgb(63.529412%,63.529412%,63.529412%);stop-opacity:1;"/>
<stop offset="0.8593" style="stop-color:rgb(50.196078%,50.196078%,50.196078%);stop-opacity:1;"/>
<stop offset="0.9199" style="stop-color:rgb(34.117647%,34.117647%,34.117647%);stop-opacity:1;"/>
<stop offset="0.9746" style="stop-color:rgb(16.862745%,16.862745%,16.862745%);stop-opacity:1;"/>
<stop offset="1" style="stop-color:rgb(7.843137%,7.843137%,7.843137%);stop-opacity:1;"/>
</radialGradient>
<radialGradient id="radial3" gradientUnits="userSpaceOnUse" cx="-135.8174" cy="-40.3198" fx="-135.8174" fy="-40.3198" r="1731.7866" gradientTransform="matrix(0.985222,0,0,0.985222,0.669951,0.834483)">
<stop offset="0" style="stop-color:rgb(100%,100%,100%);stop-opacity:1;"/>
<stop offset="0.3102" style="stop-color:rgb(99.215686%,99.215686%,99.215686%);stop-opacity:1;"/>
<stop offset="0.4505" style="stop-color:rgb(96.470588%,96.470588%,96.470588%);stop-opacity:1;"/>
<stop offset="0.5567" style="stop-color:rgb(91.372549%,91.372549%,91.372549%);stop-opacity:1;"/>
<stop offset="0.6456" style="stop-color:rgb(84.313725%,84.313725%,84.313725%);stop-opacity:1;"/>
<stop offset="0.7238" style="stop-color:rgb(74.901961%,74.901961%,74.901961%);stop-opacity:1;"/>
<stop offset="0.7944" style="stop-color:rgb(63.529412%,63.529412%,63.529412%);stop-opacity:1;"/>
<stop offset="0.8593" style="stop-color:rgb(50.196078%,50.196078%,50.196078%);stop-opacity:1;"/>
<stop offset="0.9199" style="stop-color:rgb(34.117647%,34.117647%,34.117647%);stop-opacity:1;"/>
<stop offset="0.9746" style="stop-color:rgb(16.862745%,16.862745%,16.862745%);stop-opacity:1;"/>
<stop offset="1" style="stop-color:rgb(7.843137%,7.843137%,7.843137%);stop-opacity:1;"/>
</radialGradient>
<radialGradient id="radial4" gradientUnits="userSpaceOnUse" cx="174.2534" cy="200.0752" fx="174.2534" fy="200.0752" r="466.7181" gradientTransform="matrix(0.985222,0,0,0.985222,0.669951,0.834483)">
<stop offset="0" style="stop-color:rgb(90.196078%,90.196078%,90.196078%);stop-opacity:1;"/>
<stop offset="0.1045" style="stop-color:rgb(83.921569%,83.921569%,83.921569%);stop-opacity:1;"/>
<stop offset="0.3074" style="stop-color:rgb(67.843137%,67.843137%,67.843137%);stop-opacity:1;"/>
<stop offset="0.5884" style="stop-color:rgb(42.352941%,42.352941%,42.352941%);stop-opacity:1;"/>
<stop offset="0.9335" style="stop-color:rgb(7.058824%,7.058824%,7.058824%);stop-opacity:1;"/>
<stop offset="1" style="stop-color:rgb(0%,0%,0%);stop-opacity:1;"/>
</radialGradient>
<radialGradient id="radial5" gradientUnits="userSpaceOnUse" cx="301.9058" cy="262.8477" fx="301.9058" fy="262.8477" r="678.7418" gradientTransform="matrix(0.985222,0,0,0.985222,0.669951,0.834483)">
<stop offset="0" style="stop-color:rgb(100%,100%,100%);stop-opacity:1;"/>
<stop offset="0.3435" style="stop-color:rgb(99.215686%,99.215686%,99.215686%);stop-opacity:1;"/>
<stop offset="0.4814" style="stop-color:rgb(96.470588%,96.470588%,96.470588%);stop-opacity:1;"/>
<stop offset="0.5824" style="stop-color:rgb(91.764706%,91.764706%,91.764706%);stop-opacity:1;"/>
<stop offset="0.6654" style="stop-color:rgb(84.705882%,84.705882%,84.705882%);stop-opacity:1;"/>
<stop offset="0.7373" style="stop-color:rgb(76.078431%,76.078431%,76.078431%);stop-opacity:1;"/>
<stop offset="0.8016" style="stop-color:rgb(65.098039%,65.098039%,65.098039%);stop-opacity:1;"/>
<stop offset="0.8602" style="stop-color:rgb(51.764706%,51.764706%,51.764706%);stop-opacity:1;"/>
<stop offset="0.9126" style="stop-color:rgb(37.254902%,37.254902%,37.254902%);stop-opacity:1;"/>
<stop offset="0.9494" style="stop-color:rgb(25.098039%,25.098039%,25.098039%);stop-opacity:1;"/>
<stop offset="0.9566" style="stop-color:rgb(25.098039%,25.098039%,25.098039%);stop-opacity:1;"/>
<stop offset="1" style="stop-color:rgb(25.098039%,25.098039%,25.098039%);stop-opacity:1;"/>
<stop offset="1" style="stop-color:rgb(0%,0%,0%);stop-opacity:1;"/>
</radialGradient>
<radialGradient id="radial6" gradientUnits="userSpaceOnUse" cx="102.6182" cy="5.5596" fx="102.6182" fy="5.5596" r="1202.0598" gradientTransform="matrix(0.985222,0,0,0.985222,0.669951,0.834483)">
<stop offset="0.1685" style="stop-color:rgb(100%,100%,100%);stop-opacity:1;"/>
<stop offset="0.1957" style="stop-color:rgb(87.843137%,93.72549%,96.862745%);stop-opacity:1;"/>
<stop offset="0.2406" style="stop-color:rgb(69.803922%,85.098039%,92.54902%);stop-opacity:1;"/>
<stop offset="0.2872" style="stop-color:rgb(54.509804%,77.254902%,88.627451%);stop-opacity:1;"/>
<stop offset="0.335" style="stop-color:rgb(41.960784%,70.980392%,85.490196%);stop-opacity:1;"/>
<stop offset="0.3844" style="stop-color:rgb(32.156863%,66.27451%,83.137255%);stop-opacity:1;"/>
<stop offset="0.4359" style="stop-color:rgb(25.490196%,62.745098%,81.176471%);stop-opacity:1;"/>
<stop offset="0.4911" style="stop-color:rgb(21.176471%,60.784314%,80.392157%);stop-opacity:1;"/>
<stop offset="0.5562" style="stop-color:rgb(20%,60%,80%);stop-opacity:1;"/>
<stop offset="0.606" style="stop-color:rgb(20%,58.823529%,78.431373%);stop-opacity:1;"/>
<stop offset="0.6553" style="stop-color:rgb(19.607843%,55.686275%,73.72549%);stop-opacity:1;"/>
<stop offset="0.7045" style="stop-color:rgb(19.215686%,50.196078%,65.882353%);stop-opacity:1;"/>
<stop offset="0.7536" style="stop-color:rgb(18.431373%,42.745098%,54.901961%);stop-opacity:1;"/>
<stop offset="0.8027" style="stop-color:rgb(17.647059%,32.941176%,40.784314%);stop-opacity:1;"/>
<stop offset="0.8512" style="stop-color:rgb(16.470588%,21.568627%,23.921569%);stop-opacity:1;"/>
<stop offset="0.8708" style="stop-color:rgb(16.078431%,16.078431%,16.078431%);stop-opacity:1;"/>
</radialGradient>
<radialGradient id="radial7" gradientUnits="userSpaceOnUse" cx="102.6182" cy="5.5513" fx="102.6182" fy="5.5513" r="1202.0366" gradientTransform="matrix(0.985222,0,0,0.985222,0.669951,0.834483)">
<stop offset="0.1685" style="stop-color:rgb(100%,100%,100%);stop-opacity:1;"/>
<stop offset="0.1957" style="stop-color:rgb(87.843137%,93.72549%,96.862745%);stop-opacity:1;"/>
<stop offset="0.2406" style="stop-color:rgb(69.803922%,85.098039%,92.54902%);stop-opacity:1;"/>
<stop offset="0.2872" style="stop-color:rgb(54.509804%,77.254902%,88.627451%);stop-opacity:1;"/>
<stop offset="0.335" style="stop-color:rgb(41.960784%,70.980392%,85.490196%);stop-opacity:1;"/>
<stop offset="0.3844" style="stop-color:rgb(32.156863%,66.27451%,83.137255%);stop-opacity:1;"/>
<stop offset="0.4359" style="stop-color:rgb(25.490196%,62.745098%,81.176471%);stop-opacity:1;"/>
<stop offset="0.4911" style="stop-color:rgb(21.176471%,60.784314%,80.392157%);stop-opacity:1;"/>
<stop offset="0.5562" style="stop-color:rgb(20%,60%,80%);stop-opacity:1;"/>
<stop offset="0.606" style="stop-color:rgb(20%,58.823529%,78.431373%);stop-opacity:1;"/>
<stop offset="0.6553" style="stop-color:rgb(19.607843%,55.686275%,73.72549%);stop-opacity:1;"/>
<stop offset="0.7045" style="stop-color:rgb(19.215686%,50.196078%,65.882353%);stop-opacity:1;"/>
<stop offset="0.7536" style="stop-color:rgb(18.431373%,42.745098%,54.901961%);stop-opacity:1;"/>
<stop offset="0.8027" style="stop-color:rgb(17.647059%,32.941176%,40.784314%);stop-opacity:1;"/>
<stop offset="0.8512" style="stop-color:rgb(16.470588%,21.568627%,23.921569%);stop-opacity:1;"/>
<stop offset="0.8708" style="stop-color:rgb(16.078431%,16.078431%,16.078431%);stop-opacity:1;"/>
</radialGradient>
<radialGradient id="radial8" gradientUnits="userSpaceOnUse" cx="180.6274" cy="205.9541" fx="180.6274" fy="205.9541" r="457.773" gradientTransform="matrix(0.985222,0,0,0.985222,0.669951,0.834483)">
<stop offset="0" style="stop-color:rgb(90.196078%,90.196078%,90.196078%);stop-opacity:1;"/>
<stop offset="0.1045" style="stop-color:rgb(83.921569%,83.921569%,83.921569%);stop-opacity:1;"/>
<stop offset="0.3074" style="stop-color:rgb(67.843137%,67.843137%,67.843137%);stop-opacity:1;"/>
<stop offset="0.5884" style="stop-color:rgb(42.352941%,42.352941%,42.352941%);stop-opacity:1;"/>
<stop offset="0.9335" style="stop-color:rgb(7.058824%,7.058824%,7.058824%);stop-opacity:1;"/>
<stop offset="1" style="stop-color:rgb(0%,0%,0%);stop-opacity:1;"/>
</radialGradient>
<linearGradient id="linear2" gradientUnits="userSpaceOnUse" x1="446.8354" y1="91.6548" x2="893.2535" y2="523.0419" gradientTransform="matrix(0.985222,0,0,0.985222,0.669951,0.834483)">
<stop offset="0" style="stop-color:rgb(94.117647%,95.686275%,100%);stop-opacity:1;"/>
<stop offset="0.1086" style="stop-color:rgb(92.156863%,93.72549%,97.647059%);stop-opacity:1;"/>
<stop offset="0.2475" style="stop-color:rgb(86.27451%,87.843137%,91.764706%);stop-opacity:1;"/>
<stop offset="0.4028" style="stop-color:rgb(76.862745%,78.039216%,81.176471%);stop-opacity:1;"/>
<stop offset="0.5701" style="stop-color:rgb(63.529412%,64.313725%,67.058824%);stop-opacity:1;"/>
<stop offset="0.7469" style="stop-color:rgb(46.27451%,46.666667%,48.627451%);stop-opacity:1;"/>
<stop offset="0.9291" style="stop-color:rgb(25.490196%,25.882353%,26.27451%);stop-opacity:1;"/>
<stop offset="1" style="stop-color:rgb(16.862745%,16.862745%,16.862745%);stop-opacity:1;"/>
</linearGradient>
<linearGradient id="linear3" gradientUnits="userSpaceOnUse" x1="84.4878" y1="455.8701" x2="530.9141" y2="887.2653" gradientTransform="matrix(0.985222,0,0,0.985222,0.669951,0.834483)">
<stop offset="0" style="stop-color:rgb(94.117647%,95.686275%,100%);stop-opacity:1;"/>
<stop offset="0.1086" style="stop-color:rgb(92.156863%,93.72549%,97.647059%);stop-opacity:1;"/>
<stop offset="0.2475" style="stop-color:rgb(86.27451%,87.843137%,91.764706%);stop-opacity:1;"/>
<stop offset="0.4028" style="stop-color:rgb(76.862745%,78.039216%,81.176471%);stop-opacity:1;"/>
<stop offset="0.5701" style="stop-color:rgb(63.529412%,64.313725%,67.058824%);stop-opacity:1;"/>
<stop offset="0.7469" style="stop-color:rgb(46.27451%,46.666667%,48.627451%);stop-opacity:1;"/>
<stop offset="0.9291" style="stop-color:rgb(25.490196%,25.882353%,26.27451%);stop-opacity:1;"/>
<stop offset="1" style="stop-color:rgb(16.862745%,16.862745%,16.862745%);stop-opacity:1;"/>
</linearGradient>
<linearGradient id="linear4" gradientUnits="userSpaceOnUse" x1="300.459" y1="302.0415" x2="531.948" y2="525.7363" gradientTransform="matrix(0.985222,0,0,0.985222,0.669951,0.834483)">
<stop offset="0" style="stop-color:rgb(76.078431%,84.313725%,90.980392%);stop-opacity:1;"/>
<stop offset="0.1337" style="stop-color:rgb(72.941176%,81.176471%,88.235294%);stop-opacity:1;"/>
<stop offset="0.3425" style="stop-color:rgb(64.313725%,72.941176%,80.392157%);stop-opacity:1;"/>
<stop offset="0.6001" style="stop-color:rgb(50.196078%,59.607843%,67.45098%);stop-opacity:1;"/>
<stop offset="0.894" style="stop-color:rgb(30.588235%,41.176471%,49.803922%);stop-opacity:1;"/>
<stop offset="1" style="stop-color:rgb(22.745098%,33.72549%,42.745098%);stop-opacity:1;"/>
</linearGradient>
<linearGradient id="linear5" gradientUnits="userSpaceOnUse" x1="184.5244" y1="356.8545" x2="626.4575" y2="783.9076" gradientTransform="matrix(0.985222,0,0,0.985222,0.669951,0.834483)">
<stop offset="0" style="stop-color:rgb(94.117647%,95.686275%,100%);stop-opacity:1;"/>
<stop offset="0.0973" style="stop-color:rgb(90.980392%,92.156863%,96.470588%);stop-opacity:1;"/>
<stop offset="0.2568" style="stop-color:rgb(81.960784%,83.137255%,86.666667%);stop-opacity:1;"/>
<stop offset="0.4587" style="stop-color:rgb(67.058824%,68.235294%,70.980392%);stop-opacity:1;"/>
<stop offset="0.6951" style="stop-color:rgb(47.058824%,47.45098%,49.019608%);stop-opacity:1;"/>
<stop offset="0.9578" style="stop-color:rgb(21.176471%,21.176471%,21.568627%);stop-opacity:1;"/>
<stop offset="1" style="stop-color:rgb(16.862745%,16.862745%,16.862745%);stop-opacity:1;"/>
</linearGradient>
<linearGradient id="linear6" gradientUnits="userSpaceOnUse" x1="510.2568" y1="515.2671" x2="665.2748" y2="665.0656" gradientTransform="matrix(0.985222,0,0,0.985222,0.669951,0.834483)">
<stop offset="0" style="stop-color:rgb(85.098039%,87.058824%,94.117647%);stop-opacity:1;"/>
<stop offset="0.1229" style="stop-color:rgb(83.137255%,85.490196%,92.54902%);stop-opacity:1;"/>
<stop offset="0.2629" style="stop-color:rgb(78.039216%,81.176471%,88.627451%);stop-opacity:1;"/>
<stop offset="0.4114" style="stop-color:rgb(69.019608%,73.72549%,81.960784%);stop-opacity:1;"/>
<stop offset="0.5657" style="stop-color:rgb(56.470588%,63.137255%,72.156863%);stop-opacity:1;"/>
<stop offset="0.7246" style="stop-color:rgb(40.392157%,49.803922%,60%);stop-opacity:1;"/>
<stop offset="0.8849" style="stop-color:rgb(20.784314%,33.72549%,45.490196%);stop-opacity:1;"/>
<stop offset="0.9719" style="stop-color:rgb(9.019608%,23.921569%,36.470588%);stop-opacity:1;"/>
</linearGradient>
<linearGradient id="linear7" gradientUnits="userSpaceOnUse" x1="351.6777" y1="194.7759" x2="793.1321" y2="621.3665" gradientTransform="matrix(0.985222,0,0,0.985222,0.669951,0.834483)">
<stop offset="0" style="stop-color:rgb(94.117647%,95.686275%,100%);stop-opacity:1;"/>
<stop offset="0.1086" style="stop-color:rgb(92.156863%,93.72549%,97.647059%);stop-opacity:1;"/>
<stop offset="0.2475" style="stop-color:rgb(86.27451%,87.843137%,91.764706%);stop-opacity:1;"/>
<stop offset="0.4028" style="stop-color:rgb(76.862745%,78.039216%,81.176471%);stop-opacity:1;"/>
<stop offset="0.5701" style="stop-color:rgb(63.529412%,64.313725%,67.058824%);stop-opacity:1;"/>
<stop offset="0.7469" style="stop-color:rgb(46.27451%,46.666667%,48.627451%);stop-opacity:1;"/>
<stop offset="0.9291" style="stop-color:rgb(25.490196%,25.882353%,26.27451%);stop-opacity:1;"/>
<stop offset="1" style="stop-color:rgb(16.862745%,16.862745%,16.862745%);stop-opacity:1;"/>
</linearGradient>
</defs>
<g id="surface1">
<path style=" stroke:none;fill-rule:nonzero;fill:url(#linear0);" d="M 500.039062 0.835938 C 224.257812 0.835938 0.671875 224.398438 0.671875 500.191406 C 0.671875 775.980469 224.257812 999.550781 500.039062 999.550781 C 775.84375 999.550781 999.40625 775.980469 999.40625 500.191406 C 999.40625 224.398438 775.84375 0.835938 500.039062 0.835938 Z M 500.039062 974.582031 C 238.03125 974.582031 25.660156 762.191406 25.660156 500.191406 C 25.660156 238.195312 238.03125 25.796875 500.039062 25.796875 C 762.046875 25.796875 974.433594 238.195312 974.433594 500.191406 C 974.433594 762.191406 762.046875 974.582031 500.039062 974.582031 Z M 500.039062 974.582031 "/>
<path style=" stroke:none;fill-rule:nonzero;fill:rgb(20%,20%,20%);fill-opacity:1;" d="M 978.011719 500.191406 C 978.011719 764.148438 763.996094 978.15625 500.039062 978.15625 C 236.078125 978.15625 22.085938 764.148438 22.085938 500.191406 C 22.085938 236.222656 236.078125 22.230469 500.039062 22.230469 C 763.996094 22.230469 978.011719 236.222656 978.011719 500.191406 Z M 978.011719 500.191406 "/>
<path style=" stroke:none;fill-rule:nonzero;fill:url(#radial0);" d="M 974.433594 500.191406 C 974.433594 762.191406 762.046875 974.582031 500.039062 974.582031 C 238.03125 974.582031 25.660156 762.191406 25.660156 500.191406 C 25.660156 238.195312 238.03125 25.796875 500.039062 25.796875 C 762.046875 25.796875 974.433594 238.195312 974.433594 500.191406 Z M 974.433594 500.191406 "/>
<path style=" stroke:none;fill-rule:nonzero;fill:url(#linear1);" d="M 818.085938 500.191406 C 818.085938 675.835938 675.691406 818.226562 500.039062 818.226562 C 324.386719 818.226562 181.992188 675.839844 181.992188 500.191406 C 181.992188 324.539062 324.386719 182.148438 500.039062 182.148438 C 675.691406 182.148438 818.085938 324.539062 818.085938 500.191406 Z M 818.085938 500.191406 "/>
<path style=" stroke:none;fill-rule:nonzero;fill:rgb(0%,0%,0%);fill-opacity:1;" d="M 512.777344 173.550781 L 545.816406 85.988281 L 545.816406 173.550781 L 570.910156 173.550781 L 570.910156 48.144531 L 533.199219 48.144531 L 498.902344 137.933594 L 499.226562 137.933594 L 464.929688 48.144531 L 427.21875 48.144531 L 427.21875 173.550781 L 452.3125 173.550781 L 452.3125 85.988281 L 485.347656 173.550781 Z M 512.777344 173.550781 "/>
<path style=" stroke:none;fill-rule:nonzero;fill:rgb(0%,0%,0%);fill-opacity:1;" d="M 857.136719 229.785156 L 814.265625 292.292969 L 881.601562 259.175781 L 899.867188 281.078125 L 793.886719 334.292969 L 772.472656 308.367188 L 813.554688 246.425781 L 813.308594 246.121094 L 744.976562 275.367188 L 723.320312 249.617188 L 794.78125 154.992188 L 813.046875 176.90625 L 768.300781 237.160156 L 837.550781 206.273438 Z M 857.136719 229.785156 "/>
<path style=" stroke:none;fill-rule:nonzero;fill:rgb(20%,20%,20%);fill-opacity:1;" d="M 277.9375 205.828125 C 267.839844 196.023438 252.253906 193.066406 237.605469 202.148438 C 240.410156 194.894531 239.269531 187.511719 237.789062 183.414062 C 231.46875 171.925781 229.253906 170.472656 224.09375 166.113281 C 207.25 152.003906 189.53125 164.050781 176.871094 179.136719 L 115.675781 252.070312 L 211.882812 332.785156 L 276.414062 255.894531 C 291.164062 238.316406 293.441406 220.894531 277.9375 205.828125 Z M 153.484375 241 L 190.242188 197.191406 C 194.507812 192.125 204.140625 192.324219 210.316406 197.527344 C 217.125 203.238281 217.144531 211.324219 212.574219 216.78125 L 176.222656 260.082031 Z M 254.898438 248.285156 L 216.574219 293.953125 L 192.582031 273.785156 L 231.1875 227.761719 C 235.554688 222.5625 245.289062 221.046875 251.851562 226.550781 C 259.246094 232.769531 259.976562 242.230469 254.898438 248.285156 Z M 254.898438 248.285156 "/>
<path style=" stroke:none;fill-rule:nonzero;fill:url(#radial1);" d="M 513.042969 168.707031 L 546.082031 81.144531 L 546.082031 168.707031 L 571.175781 168.707031 L 571.175781 43.300781 L 533.460938 43.300781 L 499.164062 133.085938 L 499.492188 133.085938 L 465.191406 43.300781 L 427.480469 43.300781 L 427.480469 168.707031 L 452.574219 168.707031 L 452.574219 81.144531 L 485.613281 168.707031 Z M 513.042969 168.707031 "/>
<path style=" stroke:none;fill-rule:nonzero;fill:url(#radial2);" d="M 857.382812 221.371094 L 814.527344 283.882812 L 881.863281 250.753906 L 900.113281 272.664062 L 794.148438 325.878906 L 772.734375 299.945312 L 813.816406 238.011719 L 813.578125 237.699219 L 745.222656 266.957031 L 723.585938 241.191406 L 795.046875 146.578125 L 813.308594 168.484375 L 768.570312 228.738281 L 837.792969 197.863281 Z M 857.382812 221.371094 "/>
<path style=" stroke:none;fill-rule:nonzero;fill:url(#radial3);" d="M 273.445312 203.359375 C 263.367188 193.554688 247.761719 190.597656 233.136719 199.671875 C 235.917969 192.417969 234.78125 185.03125 233.296875 180.957031 C 226.976562 169.449219 224.785156 168.015625 219.582031 163.644531 C 202.738281 149.523438 185.039062 161.582031 172.402344 176.683594 L 111.179688 249.605469 L 207.390625 330.320312 L 271.921875 253.414062 C 286.652344 235.839844 288.949219 218.425781 273.445312 203.359375 Z M 148.996094 238.53125 L 185.75 194.734375 C 190 189.65625 199.628906 189.859375 205.828125 195.046875 C 212.632812 200.769531 212.652344 208.863281 208.0625 214.300781 L 171.734375 257.609375 Z M 250.425781 245.8125 L 212.105469 291.480469 L 188.066406 271.3125 L 226.695312 225.28125 C 231.0625 220.089844 240.773438 218.578125 247.339844 224.085938 C 254.773438 230.3125 255.507812 239.75 250.425781 245.8125 Z M 250.425781 245.8125 "/>
<path style=" stroke:none;fill-rule:nonzero;fill:url(#radial4);" d="M 192.578125 500.195312 C 192.578125 330.386719 330.238281 192.726562 500.039062 192.726562 C 669.859375 192.726562 807.5 330.386719 807.5 500.195312 C 807.5 670 669.859375 807.65625 500.039062 807.65625 C 330.238281 807.65625 192.578125 670 192.578125 500.195312 Z M 192.578125 500.195312 "/>
<path style=" stroke:none;fill-rule:nonzero;fill:url(#radial5);" d="M 201.417969 500.195312 C 201.417969 335.269531 335.113281 201.5625 500.039062 201.5625 C 664.964844 201.5625 798.679688 335.269531 798.679688 500.195312 C 798.679688 665.125 664.964844 798.828125 500.039062 798.828125 C 335.117188 798.828125 201.417969 665.125 201.417969 500.195312 Z M 201.417969 500.195312 "/>
<path style=" stroke:none;fill-rule:nonzero;fill:url(#radial6);" d="M 200.949219 500.195312 L 500.039062 500.195312 L 500.039062 201.105469 C 334.847656 201.105469 200.949219 335.007812 200.949219 500.195312 Z M 200.949219 500.195312 "/>
<path style=" stroke:none;fill-rule:nonzero;fill:url(#radial7);" d="M 500.039062 500.195312 L 500.039062 799.289062 C 665.230469 799.289062 799.128906 665.363281 799.128906 500.195312 Z M 500.039062 500.195312 "/>
<path style=" stroke:none;fill-rule:nonzero;fill:url(#radial8);" d="M 801.605469 494.882812 L 505.34375 494.882812 L 505.34375 198.617188 L 494.734375 198.617188 L 494.734375 494.882812 L 198.472656 494.882812 L 198.472656 505.488281 L 494.734375 505.488281 L 494.734375 801.761719 L 505.34375 801.761719 L 505.34375 505.488281 L 801.605469 505.488281 Z M 801.605469 494.882812 "/>
<path style=" stroke:none;fill-rule:nonzero;fill:url(#linear2);" d="M 505.34375 207.007812 C 663.117188 209.816406 790.429688 337.121094 793.253906 494.882812 L 798.535156 494.882812 C 795.714844 334.191406 666.042969 204.5 505.339844 201.695312 L 505.339844 207.007812 Z M 505.34375 207.007812 "/>
<path style=" stroke:none;fill-rule:nonzero;fill:rgb(76.078431%,84.313725%,90.980392%);fill-opacity:1;" d="M 206.3125 494.84375 C 209.117188 336.863281 336.617188 209.378906 494.59375 206.5625 L 494.59375 201.257812 C 333.671875 204.074219 203.835938 333.9375 201.011719 494.839844 L 206.3125 494.839844 Z M 206.3125 494.84375 "/>
<path style=" stroke:none;fill-rule:nonzero;fill:url(#linear3);" d="M 494.734375 793.378906 C 336.960938 790.578125 209.648438 663.261719 206.84375 505.488281 L 201.539062 505.488281 C 204.363281 666.1875 334.039062 795.882812 494.734375 798.6875 Z M 494.734375 793.378906 "/>
<path style=" stroke:none;fill-rule:nonzero;fill:rgb(7.058824%,25.098039%,30.980392%);fill-opacity:1;" d="M 793.257812 505.488281 C 790.433594 663.261719 663.117188 790.578125 505.34375 793.378906 L 505.34375 798.6875 C 666.042969 795.882812 795.734375 666.1875 798.539062 505.488281 Z M 793.257812 505.488281 "/>
<path style=" stroke:none;fill-rule:nonzero;fill:url(#linear4);" d="M 489.066406 201.261719 L 489.066406 489.0625 L 201.273438 489.0625 L 201.273438 494.742188 L 494.734375 494.742188 L 494.734375 201.261719 Z M 489.066406 201.261719 "/>
<path style=" stroke:none;fill-rule:nonzero;fill:url(#linear5);" d="M 488.582031 795.902344 L 488.582031 511.566406 L 203.652344 511.566406 L 203.652344 505.957031 L 494.1875 505.957031 L 494.1875 795.902344 Z M 488.582031 795.902344 "/>
<path style=" stroke:none;fill-rule:nonzero;fill:url(#linear6);" d="M 511.417969 795.902344 L 511.417969 511.566406 L 795.753906 511.566406 L 795.753906 505.957031 L 505.828125 505.957031 L 505.828125 795.902344 Z M 511.417969 795.902344 "/>
<path style=" stroke:none;fill-rule:nonzero;fill:url(#linear7);" d="M 511.417969 203.800781 L 511.417969 488.136719 L 795.753906 488.136719 L 795.753906 493.734375 L 505.828125 493.734375 L 505.828125 203.800781 Z M 511.417969 203.800781 "/>
</g>
</svg>
