<?xml version="1.0" encoding="UTF-8" standalone="no"?>
<!-- Generator: Adobe Illustrator 13.0.0, SVG Export Plug-In . SVG Version: 6.00 Build 14948)  -->

<svg
   xmlns:dc="http://purl.org/dc/elements/1.1/"
   xmlns:cc="http://creativecommons.org/ns#"
   xmlns:rdf="http://www.w3.org/1999/02/22-rdf-syntax-ns#"
   xmlns:svg="http://www.w3.org/2000/svg"
   xmlns="http://www.w3.org/2000/svg"
   xmlns:sodipodi="http://sodipodi.sourceforge.net/DTD/sodipodi-0.dtd"
   xmlns:inkscape="http://www.inkscape.org/namespaces/inkscape"
   version="1.0"
   id="Ebene_1"
   x="0px"
   y="0px"
   width="1000"
   height="445.198"
   viewBox="0 0 1000 445.19799"
   enable-background="new 0 0 210.152 90.941"
   xml:space="preserve"
   sodipodi:docname="Chevrolet (1988) (Print).svg"
   inkscape:version="0.92.2 (5c3e80d, 2017-08-06)"><metadata
     id="metadata23677"><rdf:RDF><cc:Work
         rdf:about=""><dc:format>image/svg+xml</dc:format><dc:type
           rdf:resource="http://purl.org/dc/dcmitype/StillImage" /><dc:title></dc:title></cc:Work></rdf:RDF></metadata><defs
     id="defs23675" /><sodipodi:namedview
     pagecolor="#ffffff"
     bordercolor="#666666"
     borderopacity="1"
     objecttolerance="10"
     gridtolerance="10"
     guidetolerance="10"
     inkscape:pageopacity="0"
     inkscape:pageshadow="2"
     inkscape:window-width="1366"
     inkscape:window-height="705"
     id="namedview23673"
     showgrid="false"
     inkscape:zoom="0.71614834"
     inkscape:cx="554.5694"
     inkscape:cy="171.09596"
     inkscape:window-x="-8"
     inkscape:window-y="-8"
     inkscape:window-maximized="1"
     inkscape:current-layer="Ebene_1" /><path
     d="m 762.20058,40.90081 -159.56587,0.0196 c -4.08277,0 -6.74587,-1.21895 -6.74587,-6.8193 l -0.01,-23.65952 c 0,-6.8290899 -3.67645,-10.44190993897 -10.34889,-10.44190993897 L 402.87732,0.00968006 c -6.82909,0 -10.3391,3.84290004 -10.3391,10.36847994 l -0.01,23.66931 c 0,4.99332 -2.35959,6.81441 -6.74098,6.81441 l -104.57574,0.0245 c -7.99421,0 -12.67911,3.82822 -15.09255,8.83622 l -50.91226,99.52857 c -0.64619,1.24344 -1.03783,2.72674 -1.03783,4.21984 0,3.9457 2.57988,9.03204 9.7076,9.03204 l 161.89609,-0.0196 c 4.99332,0 6.74588,2.27147 6.74588,6.81441 l -0.0147,23.66441 c 0,7.13262 4.14152,10.37338 10.36358,10.37338 l 91.34345,-0.005 h 91.31407 c 6.22696,0 10.37338,-3.02047 10.37338,-10.29994 l -0.0196,-23.6742 c 0,-4.84156 2.05118,-6.80952 6.74098,-6.80952 l 101.5259,-0.0245 c 7.00044,0 12.03781,-1.84557 15.55272,-8.37115 L 770.0475,55.79766 c 1.10146,-2.1246 1.87004,-3.33377 1.87004,-5.86959 0,-6.67245 -5.76679,-9.02714 -9.71739,-9.02714 z m -40.21089,39.64303 -24.26654,47.47078 c -1.52248,2.74633 -4.22474,2.86871 -6.11927,2.86871 H 571.13275 c -4.99332,0 -6.81931,2.26658 -6.81931,6.80952 l -0.0147,27.2968 c 0,4.54784 -1.99243,6.7214 -6.83399,6.7214 h -63.2487 l -63.27806,0.005 c -4.23453,0 -6.8242,-1.48821 -6.8242,-6.78504 l -0.0147,-27.3017 c 0,-4.99821 -2.27636,-6.77525 -6.8193,-6.77525 H 269.6 c -3.6275,0 -6.13395,-2.28615 -6.13395,-5.45838 0,-0.92034 0.22519,-1.78682 0.62661,-2.55051 l 24.26655,-47.46589 c 0.93012,-1.68892 2.4526,-2.84423 6.11436,-2.84423 l 122.81114,0.005 c 4.23453,0 6.86337,-1.7036 6.86337,-6.84867 l -0.01,-27.28212 c 0,-4.84646 2.11481,-6.78504 6.80461,-6.78504 l 126.53655,-0.01 c 4.53805,0 6.79973,2.01201 6.79973,6.84868 l -0.0147,27.30659 c 0,4.6898 2.18335,6.77035 6.87315,6.77035 h 145.34471 c 4.61638,0 6.13395,3.04495 6.13395,5.45839 0,0.92033 -0.22029,1.78192 -0.62661,2.54561 z"
     id="path23644"
     inkscape:connector-curvature="0"
     style="clip-rule:evenodd;fill-rule:evenodd;stroke-width:4.89540958" /><polygon
     points="26.724,77.817 35.492,77.817 35.493,90.937 41.615,90.937 41.615,61.613 35.496,61.613 35.496,73.344 26.723,73.344 26.723,61.613 20.604,61.613 20.604,90.937 26.723,90.937 "
     id="polygon23650"
     transform="matrix(4.8954096,0,0,4.8954096,0,-3.3993896e-4)"
     style="clip-rule:evenodd;fill-rule:evenodd" /><polygon
     points="204.273,61.613 181.526,61.613 181.526,66.089 189.839,66.089 189.839,90.937 195.959,90.937 195.959,66.089 204.273,66.089 "
     id="polygon23652"
     transform="matrix(4.8954096,0,0,4.8954096,0,-3.3993896e-4)"
     style="clip-rule:evenodd;fill-rule:evenodd" /><polygon
     points="149.211,61.613 143.091,61.613 143.091,90.937 160.598,90.937 160.598,86.46 149.209,86.46 "
     id="polygon23654"
     transform="matrix(4.8954096,0,0,4.8954096,0,-3.3993896e-4)"
     style="clip-rule:evenodd;fill-rule:evenodd" /><path
     d="m 387.61363,421.3084 c -0.44058,1.4931 -1.54694,1.88963 -3.12327,1.88963 -1.51757,0 -2.68758,-0.58255 -3.16243,-1.96306 L 349.7868,301.62543 h -34.95322 l 36.25051,130.9571 c 1.76235,8.61592 7.50466,12.61547 15.63594,12.61547 h 27.63948 c 8.13127,0 13.38405,-4.16599 15.43523,-12.41476 l 35.37423,-131.15781 h -26.46459 z"
     id="path23656"
     inkscape:connector-curvature="0"
     style="clip-rule:evenodd;fill-rule:evenodd;stroke-width:4.89540958" /><path
     d="M 0.01958164,324.04151 0,422.74765 c 0,15.97372 8.1900202,22.44546 22.376917,22.44546 l 66.998576,-0.0245 v -21.951 H 40.920729 c -8.312406,0 -10.980404,-2.0218 -10.980404,-10.97061 l 0.03427,-77.77827 c 0,-8.62571 2.002222,-10.94613 10.960822,-10.94613 l 48.435182,0.01 v -21.91186 h -66.93004 c -15.3177361,0 -22.42097536,7.90609 -22.42097536,22.42098 z"
     id="path23658"
     inkscape:connector-curvature="0"
     style="clip-rule:evenodd;fill-rule:evenodd;stroke-width:4.89540958" /><path
     d="m 251.6779,412.247 0.01,-31.30125 h 59.54776 v -21.90206 h -59.51839 l -0.005,-24.57985 c 0,-8.29772 1.84067,-10.94614 10.96572,-10.94614 l 49.17928,0.01 v -21.91185 l -67.70841,0.01 c -15.48418,0 -22.40139,7.72985 -22.40139,22.41118 l -0.01,98.70615 c 0,15.15129 7.38227,22.44545 22.38181,22.44545 l 73.98432,-0.0245 V 423.2131 h -55.4503 c -8.3123,0.005 -10.9754,-1.84557 -10.9754,-10.96572 z"
     id="path23660"
     inkscape:connector-curvature="0"
     style="clip-rule:evenodd;fill-rule:evenodd;stroke-width:4.89540958" /><path
     d="m 532.58629,384.5145 c 13.85891,0 22.38671,-6.31507 22.38671,-22.43566 l -0.0147,-38.03733 c 0,-14.99464 -7.07387,-22.42098 -22.4014,-22.42098 h -83.501 v 143.5481 h 29.9648 V 323.53239 l 35.01197,-0.01 c 9.2817,0 10.96082,2.64841 10.96082,10.94613 l 0.0392,17.50109 c 0,8.46416 -2.3449,10.97551 -10.9853,10.97551 l -16.36046,0.0245 c -6.35914,0 -9.93768,3.81352 -9.93768,10.00621 0,3.10859 1.57632,5.36048 2.83444,7.59768 l 37.82193,64.59493 h 37.08763 l -39.62346,-60.61006 z"
     id="path23662"
     inkscape:connector-curvature="0"
     style="clip-rule:evenodd;fill-rule:evenodd;stroke-width:4.89540958" /><path
     d="m 659.94037,301.63032 h -66.01459 c -15.80728,0 -22.3965,8.05785 -22.3965,22.41119 l -0.0147,98.70614 c 0,16.29193 8.67956,22.44546 22.38181,22.44546 l 33.20067,-0.01 h 32.85309 c 14.35335,0 22.40629,-6.78994 22.40629,-22.43567 l -0.0196,-98.70614 c 0,-14.68133 -6.91721,-22.41119 -22.3965,-22.41119 z m -18.51444,121.58729 h -14.33375 -14.66665 c -8.6404,0 -10.97061,-2.3449 -10.97061,-10.97061 l 0.005,-77.77827 c 0,-7.48998 1.02314,-10.94613 10.96082,-10.94613 l 29.01999,0.01 c 7.82776,0 10.93635,1.33155 10.93635,10.93634 l 0.0244,77.77826 c 0.005,9.2817 -2.82465,10.97061 -10.97551,10.97061 z"
     id="path23664"
     inkscape:connector-curvature="0"
     style="clip-rule:evenodd;fill-rule:evenodd;stroke-width:4.89540958" /><path
     d="m 821.94906,412.247 0.01,-31.30125 h 59.54287 v -21.90206 h -59.49881 l -0.0147,-24.57985 c 0,-8.29772 1.83578,-10.94614 10.96082,-10.94614 l 49.18908,0.01 v -21.91185 l -67.71331,0.01 c -15.48907,0 -22.40139,7.72985 -22.40139,22.41118 l -0.0196,98.70615 c 0,15.15129 7.38228,22.44545 22.3916,22.44545 l 73.97943,-0.0245 V 423.2131 h -55.44541 c -8.3173,0.005 -10.9804,-1.84557 -10.9804,-10.96572 z"
     id="path23666"
     inkscape:connector-curvature="0"
     style="clip-rule:evenodd;fill-rule:evenodd;stroke-width:4.89540958" /></svg>