<?xml version="1.0" encoding="UTF-8"?>
<svg xmlns="http://www.w3.org/2000/svg" xmlns:xlink="http://www.w3.org/1999/xlink" width="1000px" height="px" viewBox="0 0 1000 445" version="1.1">
<g id="surface1">
<path style=" stroke:none;fill-rule:evenodd;fill:rgb(0%,0%,0%);fill-opacity:1;" d="M 762.199219 40.902344 L 602.632812 40.921875 C 598.550781 40.921875 595.890625 39.703125 595.890625 34.101562 L 595.878906 10.441406 C 595.878906 3.613281 592.203125 0 585.53125 0 L 402.878906 0.0078125 C 396.046875 0.0078125 392.539062 3.851562 392.539062 10.378906 L 392.527344 34.046875 C 392.527344 39.039062 390.167969 40.863281 385.789062 40.863281 L 281.210938 40.886719 C 273.21875 40.886719 268.53125 44.714844 266.117188 49.722656 L 215.207031 149.25 C 214.558594 150.496094 214.167969 151.976562 214.167969 153.472656 C 214.167969 157.417969 216.75 162.503906 223.875 162.503906 L 385.773438 162.484375 C 390.765625 162.484375 392.519531 164.753906 392.519531 169.296875 L 392.503906 192.960938 C 392.503906 200.09375 396.644531 203.335938 402.867188 203.335938 L 494.210938 203.332031 L 585.523438 203.332031 C 591.75 203.332031 595.898438 200.308594 595.898438 193.03125 L 595.878906 169.355469 C 595.878906 164.515625 597.929688 162.546875 602.621094 162.546875 L 704.144531 162.523438 C 711.144531 162.523438 716.183594 160.675781 719.699219 154.152344 L 770.046875 55.796875 C 771.148438 53.671875 771.917969 52.464844 771.917969 49.929688 C 771.917969 43.253906 766.152344 40.902344 762.199219 40.902344 Z M 721.988281 80.542969 L 697.722656 128.015625 C 696.199219 130.761719 693.5 130.882812 691.605469 130.882812 L 571.132812 130.882812 C 566.140625 130.882812 564.3125 133.148438 564.3125 137.691406 L 564.296875 164.988281 C 564.296875 169.539062 562.304688 171.710938 557.464844 171.710938 L 494.214844 171.710938 L 430.9375 171.714844 C 426.703125 171.714844 424.113281 170.226562 424.113281 164.929688 L 424.097656 137.628906 C 424.097656 132.632812 421.824219 130.855469 417.28125 130.855469 L 269.601562 130.855469 C 265.972656 130.855469 263.464844 128.566406 263.464844 125.394531 C 263.464844 124.476562 263.691406 123.609375 264.09375 122.84375 L 288.359375 75.378906 C 289.289062 73.691406 290.8125 72.535156 294.472656 72.535156 L 417.285156 72.539062 C 421.519531 72.539062 424.148438 70.835938 424.148438 65.691406 L 424.136719 38.410156 C 424.136719 33.5625 426.253906 31.625 430.941406 31.625 L 557.480469 31.613281 C 562.015625 31.613281 564.277344 33.625 564.277344 38.464844 L 564.265625 65.769531 C 564.265625 70.460938 566.449219 72.539062 571.136719 72.539062 L 716.480469 72.539062 C 721.097656 72.539062 722.617188 75.585938 722.617188 78 C 722.617188 78.917969 722.394531 79.78125 721.988281 80.542969 Z M 721.988281 80.542969 "/>
<path style=" stroke:none;fill-rule:evenodd;fill:rgb(0%,0%,0%);fill-opacity:1;" d="M 130.824219 380.945312 L 173.746094 380.945312 L 173.753906 445.171875 L 203.722656 445.171875 L 203.722656 301.621094 L 173.765625 301.621094 L 173.765625 359.046875 L 130.820312 359.046875 L 130.820312 301.621094 L 100.863281 301.621094 L 100.863281 445.171875 L 130.820312 445.171875 Z M 130.824219 380.945312 "/>
<path style=" stroke:none;fill-rule:evenodd;fill:rgb(0%,0%,0%);fill-opacity:1;" d="M 1000 301.621094 L 888.644531 301.621094 L 888.644531 323.53125 L 929.339844 323.53125 L 929.339844 445.171875 L 959.300781 445.171875 L 959.300781 323.53125 L 1000 323.53125 Z M 1000 301.621094 "/>
<path style=" stroke:none;fill-rule:evenodd;fill:rgb(0%,0%,0%);fill-opacity:1;" d="M 730.449219 301.621094 L 700.488281 301.621094 L 700.488281 445.171875 L 786.191406 445.171875 L 786.191406 423.257812 L 730.4375 423.257812 Z M 730.449219 301.621094 "/>
<path style=" stroke:none;fill-rule:evenodd;fill:rgb(0%,0%,0%);fill-opacity:1;" d="M 387.613281 421.308594 C 387.171875 422.800781 386.066406 423.199219 384.492188 423.199219 C 382.972656 423.199219 381.804688 422.617188 381.328125 421.234375 L 349.785156 301.625 L 314.832031 301.625 L 351.085938 432.582031 C 352.847656 441.199219 358.589844 445.199219 366.71875 445.199219 L 394.359375 445.199219 C 402.492188 445.199219 407.742188 441.03125 409.792969 432.785156 L 445.167969 301.625 L 418.703125 301.625 Z M 387.613281 421.308594 "/>
<path style=" stroke:none;fill-rule:evenodd;fill:rgb(0%,0%,0%);fill-opacity:1;" d="M 0.0195312 324.042969 L 0 422.746094 C 0 438.722656 8.191406 445.191406 22.375 445.191406 L 89.375 445.167969 L 89.375 423.21875 L 40.921875 423.21875 C 32.609375 423.21875 29.941406 421.195312 29.941406 412.246094 L 29.972656 334.46875 C 29.972656 325.84375 31.976562 323.523438 40.933594 323.523438 L 89.371094 323.53125 L 89.371094 301.621094 L 22.441406 301.621094 C 7.121094 301.621094 0.0195312 309.527344 0.0195312 324.042969 Z M 0.0195312 324.042969 "/>
<path style=" stroke:none;fill-rule:evenodd;fill:rgb(0%,0%,0%);fill-opacity:1;" d="M 251.679688 412.246094 L 251.6875 380.945312 L 311.234375 380.945312 L 311.234375 359.042969 L 251.71875 359.042969 L 251.710938 334.464844 C 251.710938 326.167969 253.554688 323.519531 262.679688 323.519531 L 311.855469 323.527344 L 311.855469 301.617188 L 244.148438 301.625 C 228.664062 301.625 221.746094 309.355469 221.746094 324.035156 L 221.738281 422.742188 C 221.738281 437.894531 229.121094 445.1875 244.121094 445.1875 L 318.105469 445.164062 L 318.105469 423.214844 L 262.652344 423.214844 C 254.339844 423.21875 251.679688 421.367188 251.679688 412.246094 Z M 251.679688 412.246094 "/>
<path style=" stroke:none;fill-rule:evenodd;fill:rgb(0%,0%,0%);fill-opacity:1;" d="M 532.585938 384.515625 C 546.445312 384.515625 554.972656 378.199219 554.972656 362.078125 L 554.957031 324.042969 C 554.957031 309.046875 547.882812 301.621094 532.558594 301.621094 L 449.054688 301.621094 L 449.054688 445.167969 L 479.019531 445.167969 L 479.019531 323.53125 L 514.03125 323.523438 C 523.3125 323.523438 524.992188 326.171875 524.992188 334.46875 L 525.03125 351.96875 C 525.03125 360.433594 522.6875 362.945312 514.046875 362.945312 L 497.6875 362.96875 C 491.328125 362.96875 487.75 366.78125 487.75 372.976562 C 487.75 376.085938 489.324219 378.335938 490.582031 380.574219 L 528.40625 445.167969 L 565.492188 445.167969 L 525.871094 384.558594 Z M 532.585938 384.515625 "/>
<path style=" stroke:none;fill-rule:evenodd;fill:rgb(0%,0%,0%);fill-opacity:1;" d="M 659.941406 301.628906 L 593.925781 301.628906 C 578.117188 301.628906 571.527344 309.6875 571.527344 324.042969 L 571.515625 422.746094 C 571.515625 439.039062 580.195312 445.191406 593.894531 445.191406 L 627.097656 445.183594 L 659.949219 445.183594 C 674.304688 445.183594 682.355469 438.394531 682.355469 422.746094 L 682.335938 324.042969 C 682.335938 309.359375 675.417969 301.628906 659.941406 301.628906 Z M 641.425781 423.21875 L 612.425781 423.21875 C 603.785156 423.21875 601.453125 420.871094 601.453125 412.246094 L 601.460938 334.46875 C 601.460938 326.980469 602.484375 323.523438 612.421875 323.523438 L 641.441406 323.53125 C 649.269531 323.53125 652.378906 324.863281 652.378906 334.46875 L 652.402344 412.246094 C 652.40625 421.527344 649.578125 423.21875 641.425781 423.21875 Z M 641.425781 423.21875 "/>
<path style=" stroke:none;fill-rule:evenodd;fill:rgb(0%,0%,0%);fill-opacity:1;" d="M 821.949219 412.246094 L 821.960938 380.945312 L 881.5 380.945312 L 881.5 359.042969 L 822.003906 359.042969 L 821.988281 334.464844 C 821.988281 326.167969 823.824219 323.519531 832.949219 323.519531 L 882.136719 323.527344 L 882.136719 301.617188 L 814.425781 301.625 C 798.9375 301.625 792.023438 309.355469 792.023438 324.035156 L 792.003906 422.742188 C 792.003906 437.894531 799.386719 445.1875 814.394531 445.1875 L 888.375 445.164062 L 888.375 423.214844 L 832.929688 423.214844 C 824.613281 423.21875 821.949219 421.367188 821.949219 412.246094 Z M 821.949219 412.246094 "/>
</g>
</svg>
