<?xml version="1.0" encoding="UTF-8"?>
<svg xmlns="http://www.w3.org/2000/svg" xmlns:xlink="http://www.w3.org/1999/xlink" width="1000px" height="px" viewBox="0 0 998 362" version="1.1">
<g id="surface1">
<path style=" stroke:none;fill-rule:nonzero;fill:rgb(0%,0%,0%);fill-opacity:1;" d="M 461.671875 217.203125 C 407.703125 205.589844 367.4375 168.808594 363.503906 124.347656 L 333 117.875 C 333.417969 171.804688 385.175781 217.09375 455.335938 230.414062 Z M 516.207031 220.089844 C 503.84375 221.371094 491.378906 221.339844 479.019531 220.003906 L 472.792969 233.015625 C 489.289062 234.804688 505.929688 234.835938 522.433594 233.101562 Z M 632.617188 124.152344 C 628.773438 168.917969 588.066406 205.941406 533.640625 217.378906 L 539.933594 230.585938 C 610.703125 217.464844 662.792969 171.914062 663.097656 117.722656 Z M 498.050781 13.410156 C 541.113281 13.410156 579.480469 28.9375 604.148438 53.121094 L 630.695312 47.480469 C 600.632812 18.746094 552.410156 0.0898438 498.050781 0.0898438 C 443.601562 0.0898438 395.292969 18.789062 365.230469 47.675781 L 391.796875 53.296875 C 416.488281 29.023438 454.875 13.410156 498.050781 13.410156 Z M 498.050781 13.410156 "/>
<path style=" stroke:none;fill-rule:nonzero;fill:rgb(0%,0%,0%);fill-opacity:1;" d="M 440.171875 264.789062 C 439.648438 266.035156 440.324219 267.019531 441.589844 266.800781 L 454 264.921875 C 455.289062 264.722656 456.472656 264.394531 457.257812 262.691406 L 500.605469 171.914062 C 502.703125 167.691406 506.089844 164.238281 510.65625 163.320312 L 609 142.675781 C 611.75 142.210938 614.148438 140.53125 615.53125 138.105469 L 622.304688 125.921875 C 622.742188 125.160156 623.199219 124.875 624.316406 124.632812 L 704.523438 107.664062 C 706.644531 107.160156 709.308594 106.746094 712.148438 102.65625 L 774.351562 5.316406 C 774.789062 4.574219 774.441406 3.675781 772.976562 3.941406 L 671.902344 25.195312 C 667.96875 26.003906 665.609375 27.164062 663.882812 30.359375 L 656.914062 43.171875 L 543.496094 67.226562 C 540.730469 67.640625 538.078125 68.605469 535.695312 70.070312 C 533.039062 72.164062 530.957031 74.894531 529.644531 78.007812 Z M 386.183594 142.695312 C 383.425781 142.226562 381.023438 140.550781 379.628906 138.125 L 372.875 125.945312 C 372.4375 125.179688 371.957031 124.894531 370.84375 124.65625 L 290.636719 107.683594 C 288.515625 107.183594 285.875 106.765625 283.011719 102.675781 L 220.851562 5.339844 C 220.414062 4.597656 220.742188 3.699219 222.203125 3.960938 L 323.277344 25.21875 C 327.210938 26.027344 329.59375 27.1875 331.296875 30.378906 L 338.289062 43.195312 L 451.6875 67.25 C 454.453125 67.65625 457.105469 68.625 459.484375 70.09375 C 462.152344 72.171875 464.238281 74.90625 465.539062 78.03125 L 496.5625 142.894531 C 496.78125 143.351562 496.78125 143.746094 496.628906 144.054688 L 487.277344 163.601562 C 487.148438 163.84375 486.949219 163.929688 486.621094 163.867188 Z M 386.183594 142.695312 "/>
<path style=" stroke:none;fill-rule:nonzero;fill:rgb(0%,0%,0%);fill-opacity:1;" d="M 498.902344 181.140625 C 498.464844 180.246094 498.332031 179.589844 498.769531 178.628906 L 501.65625 172.546875 C 502.769531 170.054688 504.527344 167.90625 506.746094 166.316406 C 507.183594 166.007812 507.621094 165.898438 507.992188 166.664062 L 555.03125 264.8125 C 555.535156 266.058594 554.878906 267.042969 553.589844 266.824219 L 541.179688 264.941406 C 539.890625 264.746094 538.734375 264.417969 537.925781 262.710938 Z M 498.902344 181.140625 "/>
<path style=" stroke:none;fill-rule:nonzero;fill:rgb(100%,100%,100%);fill-opacity:1;" d="M 326.925781 41.683594 C 325.902344 39.804688 325.070312 38.035156 323.738281 36.480469 C 321.824219 34.226562 319.191406 32.699219 316.289062 32.152344 L 244.558594 16.972656 C 243.964844 16.863281 243.726562 16.996094 244.03125 17.5625 L 294 95.808594 C 297.476562 101.191406 302.9375 102.328125 305.472656 102.875 L 366.605469 115.796875 C 367.0625 115.886719 367.195312 115.667969 367.042969 115.316406 Z M 450.921875 80.785156 C 448.496094 75.691406 443.601562 73.503906 439.996094 72.71875 L 343.90625 52.25 C 343.578125 52.160156 343.3125 52.335938 343.46875 52.640625 L 385.746094 130.101562 C 387.726562 133.421875 390.992188 135.769531 394.769531 136.59375 C 426.539062 143.265625 453.9375 149.410156 485.703125 155.707031 C 486.382812 155.839844 486.710938 155.664062 486.359375 154.964844 Z M 450.921875 80.785156 "/>
<path style=" stroke:none;fill-rule:nonzero;fill:rgb(80%,12.941176%,19.215686%);fill-opacity:1;" d="M 750.625 16.953125 C 751.238281 16.84375 751.457031 16.972656 751.148438 17.542969 L 701.179688 95.789062 C 697.726562 101.167969 692.265625 102.304688 689.730469 102.851562 L 628.597656 115.777344 C 628.140625 115.863281 627.984375 115.644531 628.160156 115.296875 L 668.253906 41.683594 C 669.28125 39.804688 670.109375 38.035156 671.445312 36.480469 C 673.351562 34.226562 675.972656 32.699219 678.871094 32.152344 Z M 544.304688 80.785156 C 546.707031 75.691406 551.625 73.503906 555.230469 72.71875 L 651.277344 52.226562 C 651.625 52.140625 651.867188 52.3125 651.734375 52.621094 L 609.4375 130.078125 C 607.464844 133.398438 604.203125 135.75 600.433594 136.574219 C 568.664062 143.242188 541.246094 149.390625 509.476562 155.6875 C 508.820312 155.816406 508.492188 155.644531 508.84375 154.945312 Z M 544.304688 80.785156 "/>
<path style=" stroke:none;fill-rule:nonzero;fill:rgb(55.294118%,55.294118%,56.470588%);fill-opacity:1;" d="M 625.886719 88.769531 L 598.054688 94.671875 L 601.679688 87.652344 L 568.710938 94.695312 L 565.367188 101.605469 L 544.457031 106.046875 L 531.585938 120.019531 L 559.269531 114.160156 L 555.820312 121.242188 L 587.914062 114.332031 L 591.542969 107.3125 L 613.019531 102.765625 Z M 625.886719 88.769531 "/>
<path style=" stroke:none;fill-rule:nonzero;fill:rgb(0%,0%,0%);fill-opacity:1;" d="M 381.898438 61.585938 L 415.089844 68.648438 L 427.542969 94.71875 L 394.945312 87.761719 Z M 427.542969 94.71875 L 459.441406 101.410156 L 472.222656 128.109375 L 440.28125 121.351562 Z M 440.28125 121.351562 L 408.292969 114.488281 L 421.535156 141.058594 L 452.886719 147.660156 Z M 440.28125 121.351562 "/>
<path style=" stroke:none;fill-rule:nonzero;fill:rgb(0%,0%,0%);fill-opacity:1;" d="M 408.292969 114.488281 L 394.945312 87.761719 L 359.917969 80.261719 L 374.667969 107.292969 Z M 286.8125 27.144531 L 301.101562 53.144531 L 335.84375 60.515625 C 335.84375 60.515625 325.355469 41.421875 324.613281 39.914062 C 322.886719 36.371094 319.542969 34.007812 315 33.089844 C 312.484375 32.589844 286.8125 27.144531 286.8125 27.144531 Z M 263.0625 45.117188 L 301.101562 53.167969 L 316.003906 80.261719 L 280.738281 72.78125 Z M 316.003906 80.261719 L 350.589844 87.566406 L 365.121094 114.246094 L 330.6875 106.964844 Z M 316.003906 80.261719 "/>
<path style=" stroke:none;fill-rule:nonzero;fill:rgb(55.294118%,55.294118%,56.470588%);fill-opacity:1;" d="M 714.441406 46.257812 C 714.246094 44.8125 713.589844 44.027344 712.324219 44.046875 C 709.175781 44.046875 705.988281 46.933594 704 49.054688 C 698.800781 54.21875 694.160156 59.914062 690.148438 66.046875 L 689.207031 66.265625 C 693.664062 57.78125 698.316406 53.625 702.207031 48.574219 C 705.136719 44.769531 707.144531 40.328125 706.597656 35.605469 C 706.554688 35.148438 706.445312 35.125 705.855469 35.34375 C 703.691406 36.410156 701.78125 37.925781 700.242188 39.78125 C 698.285156 42.339844 696.671875 45.140625 695.433594 48.113281 C 692.898438 54.324219 690.429688 60.734375 687.394531 66.636719 L 686.542969 66.835938 C 687.984375 63.421875 689.730469 59.96875 690.890625 56.601562 C 691.609375 54.480469 692.570312 51.175781 691.128906 49.734375 C 689.753906 48.378906 686.234375 49.339844 684.203125 50.300781 C 680.65625 52.199219 678.074219 55.511719 677.101562 59.421875 C 676.492188 61.585938 676.46875 63.203125 676.207031 64.867188 C 676.074219 65.785156 675.726562 66.835938 675.574219 67.359375 C 675.375 68.082031 675.835938 68.191406 676.140625 67.90625 C 676.601562 67.480469 677.011719 67.003906 677.363281 66.484375 C 679.351562 63.445312 680.554688 60.601562 682.390625 58.832031 C 683.917969 57.34375 685.054688 58.042969 685.425781 59.398438 C 686.027344 61.976562 685.871094 64.671875 684.96875 67.164062 L 682.367188 67.710938 L 676.316406 78.382812 L 678.828125 77.835938 C 678.023438 79.222656 676.988281 80.464844 675.769531 81.507812 C 675.136719 82.035156 674.285156 82.273438 674.132812 81.222656 C 674.042969 80.722656 674 79.957031 673.933594 79.429688 C 673.804688 78.359375 672.316406 78.335938 672.382812 79.300781 C 672.425781 79.957031 671.96875 80.632812 671.507812 81.398438 C 670.589844 82.886719 669.652344 83.980469 669.214844 85.53125 C 668.625 87.652344 670.15625 87.523438 671.160156 87.105469 C 672.761719 86.386719 674.195312 85.34375 675.375 84.046875 C 677.628906 81.792969 678.761719 80.21875 680.445312 77.460938 L 681.277344 77.265625 C 679.59375 80.722656 677.472656 82.820312 675.265625 85.292969 C 673.410156 87.390625 671.945312 89.90625 672.46875 92.617188 C 672.558594 93.078125 672.886719 93.121094 673.191406 92.945312 C 675.472656 91.523438 677.429688 89.640625 678.9375 87.414062 C 679.757812 86.113281 680.226562 84.621094 680.292969 83.082031 C 680.777344 80.917969 681.621094 78.847656 682.785156 76.960938 L 683.59375 76.785156 C 682.695312 78.820312 681.648438 80.109375 681.167969 82.625 C 680.707031 85.007812 682.304688 85.007812 683.484375 84.484375 C 685.140625 83.648438 686.589844 82.453125 687.722656 80.984375 C 688.769531 79.738281 689.46875 78.402344 690.496094 77.046875 C 690.929688 76.425781 691.515625 75.929688 692.199219 75.605469 C 693.183594 75.121094 692.289062 74.269531 691.238281 74.683594 C 690.191406 75.101562 689.183594 76.0625 688.484375 76.804688 C 687.851562 77.484375 686.871094 78.578125 686.039062 79.210938 C 685.582031 79.605469 683.898438 79.910156 684.3125 78.382812 C 684.523438 77.683594 684.847656 77.023438 685.273438 76.433594 L 687.832031 75.886719 L 693.90625 65.214844 L 691.652344 65.699219 C 694.558594 61.9375 698.382812 57.976562 702.03125 55.089844 C 702.949219 54.371094 703.582031 54.152344 703.867188 54.042969 C 704.761719 53.667969 705.222656 54.105469 704.980469 54.828125 C 704.304688 56.929688 702.929688 57.957031 701.96875 60.425781 C 701.835938 60.777344 701.617188 61.324219 701.726562 61.71875 C 701.878906 62.394531 702.46875 62.199219 702.644531 61.847656 C 702.972656 61.144531 703.378906 60.476562 703.847656 59.859375 C 705.878906 57.148438 707.667969 56.316406 711.011719 53.714844 C 713.066406 52.117188 714.769531 48.726562 714.441406 46.257812 Z M 659.40625 98.804688 L 657.265625 102.589844 L 686.34375 96.445312 L 688.484375 92.660156 Z M 659.40625 98.804688 "/>
<path style=" stroke:none;fill-rule:nonzero;fill:rgb(0%,0%,0%);fill-opacity:1;" d="M 425.269531 257.070312 L 422.539062 257.070312 L 422.539062 256.128906 L 429.050781 256.128906 L 429.050781 257.070312 L 426.339844 257.070312 L 426.339844 264.417969 L 425.269531 264.417969 Z M 433.441406 264.417969 L 431.167969 257.683594 L 431.167969 264.417969 L 430.097656 264.417969 L 430.097656 256.128906 L 431.605469 256.128906 L 433.988281 263.171875 L 436.371094 256.128906 L 437.855469 256.128906 L 437.855469 264.417969 L 436.761719 264.417969 L 436.761719 257.683594 L 434.492188 264.417969 Z M 433.441406 264.417969 "/>
<path style=" stroke:none;fill-rule:nonzero;fill:rgb(0%,0%,0%);fill-opacity:1;" d="M 530.539062 312.332031 L 515.484375 312.332031 C 513.417969 312.253906 511.378906 312.84375 509.671875 314.015625 L 455.707031 351.191406 C 454.109375 352.332031 453.214844 352.394531 452.515625 350.996094 L 434.074219 314.519531 C 433.464844 313.292969 432.152344 312.3125 430.753906 312.3125 L 413.449219 312.3125 C 411.875 312.3125 411.222656 313.621094 411.789062 314.628906 C 412.335938 315.679688 433.484375 355.085938 435.144531 358.125 C 436.828125 361.1875 439.339844 361.863281 443.796875 361.863281 L 454.941406 361.863281 C 458.75 361.980469 462.503906 360.921875 465.691406 358.824219 L 531.324219 314.496094 C 532.332031 313.839844 532.8125 312.332031 530.539062 312.332031 Z M 347.53125 341.570312 L 378.820312 341.570312 C 387.273438 341.570312 393.414062 338.617188 396.101562 334.070312 C 398.113281 330.785156 399.769531 327.296875 401.039062 323.660156 C 402.546875 319.132812 401.871094 312.332031 389.699219 312.332031 L 292.539062 312.332031 C 291.144531 312.394531 289.910156 313.242188 289.347656 314.519531 C 286.355469 320.75 272.152344 351.410156 268.480469 359.304688 C 268.023438 360.335938 268.261719 361.492188 269.640625 361.492188 L 285.851562 361.492188 C 287.230469 361.390625 288.449219 360.554688 289.042969 359.304688 L 305.539062 323.902344 C 306.0625 322.742188 307.066406 322.546875 307.875 322.546875 L 376.960938 322.546875 C 379.738281 322.546875 380.328125 323.902344 379.957031 325.628906 C 379.625 326.746094 379.179688 327.820312 378.621094 328.84375 C 377.683594 330.570312 376.789062 331.359375 373.773438 331.359375 L 313.992188 331.359375 C 312.609375 331.464844 311.390625 332.308594 310.804688 333.566406 C 310.191406 334.878906 309.164062 336.804688 308.617188 338.179688 C 308.070312 339.558594 308.488281 340.476562 309.558594 340.828125 C 321.398438 344.589844 347.464844 354.933594 359.417969 359.851562 C 362.257812 361.035156 364.703125 361.515625 367.109375 361.515625 L 397.238281 361.515625 C 399.488281 361.515625 399.402344 359.589844 397.542969 358.933594 C 380.996094 353.175781 364.359375 347.667969 347.640625 342.421875 C 346.65625 342.140625 346.898438 341.570312 347.53125 341.570312 Z M 265.792969 323.027344 C 266.1875 318.628906 263.761719 314.914062 257.140625 313.273438 C 253.621094 312.554688 250.027344 312.253906 246.4375 312.375 L 164.019531 312.375 C 146.804688 312.375 141.777344 318.894531 137.539062 327.816406 C 135.09375 332.933594 131.816406 340.039062 129.71875 344.589844 C 124.84375 355.019531 130.855469 361.535156 142.738281 361.535156 L 229 361.535156 C 247.15625 361.535156 251.917969 354.800781 256.027344 345.964844 L 263.214844 330.484375 C 264.023438 328.710938 265.574219 325.453125 265.792969 323.027344 Z M 243.484375 328.558594 C 242.394531 330.855469 237.980469 340.457031 235.226562 346.382812 C 233.457031 350.164062 231.710938 351.347656 226.902344 351.347656 L 153.425781 351.347656 C 149.710938 351.347656 148.945312 348.242188 150.234375 345.398438 C 152.746094 339.972656 155.847656 333.414062 158.710938 327.289062 C 160.21875 324.03125 163.257812 322.589844 166.597656 322.589844 L 240.253906 322.589844 C 243.222656 322.566406 245.191406 324.90625 243.484375 328.558594 Z M 14.703125 361.515625 C 2.863281 361.515625 -3.167969 355.042969 1.683594 344.566406 C 3.519531 340.566406 7.601562 331.730469 9.484375 327.792969 C 13.675781 319.003906 18.769531 312.355469 35.984375 312.355469 L 128.101562 312.355469 C 129.324219 312.355469 129.828125 313.292969 129.28125 314.542969 L 126.570312 320.378906 C 125.960938 321.671875 124.605469 322.566406 123.382812 322.566406 L 38.585938 322.589844 C 35.21875 322.589844 32.207031 324.011719 30.675781 327.289062 L 22.21875 345.398438 C 20.886719 348.261719 21.695312 351.347656 25.410156 351.347656 L 110.164062 351.347656 C 111.386719 351.347656 111.890625 352.308594 111.34375 353.511719 L 108.613281 359.351562 C 108 360.664062 106.578125 361.558594 105.421875 361.558594 C 104.242188 361.515625 26.546875 361.515625 14.703125 361.515625 Z M 983.097656 341.59375 C 984.300781 341.59375 985.722656 340.628906 986.289062 339.40625 L 989 333.566406 C 989.566406 332.363281 989.042969 331.378906 987.839844 331.378906 L 904.792969 331.378906 C 903.566406 331.378906 902.148438 332.363281 901.601562 333.566406 L 898.894531 339.40625 C 898.324219 340.628906 898.847656 341.59375 900.050781 341.59375 Z M 983.097656 341.59375 "/>
<path style=" stroke:none;fill-rule:nonzero;fill:rgb(0%,0%,0%);fill-opacity:1;" d="M 880.429688 361.515625 C 868.589844 361.515625 862.558594 355.042969 867.40625 344.566406 C 869.242188 340.566406 873.328125 331.730469 875.207031 327.792969 C 879.402344 319.003906 884.492188 312.355469 901.710938 312.355469 L 996.625 312.355469 C 997.824219 312.355469 998.328125 313.292969 997.78125 314.542969 C 997.234375 315.789062 995.664062 319.113281 995.070312 320.378906 C 994.484375 321.636719 993.265625 322.472656 991.882812 322.566406 L 904.3125 322.589844 C 900.96875 322.589844 897.929688 324.011719 896.402344 327.289062 L 887.945312 345.398438 C 886.613281 348.261719 887.421875 351.347656 891.136719 351.347656 L 978.664062 351.347656 C 979.886719 351.347656 980.390625 352.308594 979.84375 353.511719 L 977.113281 359.351562 C 976.527344 360.605469 975.304688 361.445312 973.921875 361.535156 C 965.839844 361.492188 892.273438 361.515625 880.429688 361.515625 Z M 642.910156 341.59375 C 644.289062 341.492188 645.503906 340.65625 646.097656 339.40625 L 648.808594 333.566406 C 649.355469 332.363281 648.851562 331.378906 647.648438 331.378906 L 564.578125 331.378906 C 563.378906 331.378906 561.957031 332.363281 561.390625 333.566406 L 558.660156 339.40625 C 558.113281 340.628906 558.636719 341.59375 559.839844 341.59375 Z M 642.910156 341.59375 "/>
<path style=" stroke:none;fill-rule:nonzero;fill:rgb(0%,0%,0%);fill-opacity:1;" d="M 540.261719 361.515625 C 528.417969 361.515625 522.367188 355.042969 527.21875 344.566406 C 529.074219 340.566406 533.160156 331.730469 535.039062 327.792969 C 539.214844 319.003906 544.324219 312.355469 561.542969 312.355469 L 656.433594 312.355469 C 657.65625 312.355469 658.160156 313.292969 657.613281 314.542969 L 654.902344 320.378906 C 654.316406 321.636719 653.097656 322.472656 651.714844 322.566406 L 564.144531 322.589844 C 560.777344 322.589844 557.742188 324.011719 556.234375 327.289062 L 547.777344 345.398438 C 546.445312 348.261719 547.230469 351.347656 550.96875 351.347656 L 638.496094 351.347656 C 639.71875 351.347656 640.222656 352.308594 639.652344 353.511719 L 636.945312 359.351562 C 636.351562 360.601562 635.132812 361.433594 633.753906 361.535156 C 625.671875 361.492188 552.105469 361.515625 540.261719 361.515625 Z M 869.832031 312.355469 L 671.835938 312.355469 C 670.429688 312.375 669.175781 313.238281 668.648438 314.542969 C 667.96875 316.050781 666.441406 319.15625 665.9375 320.378906 C 665.433594 321.605469 665.699219 322.566406 667.097656 322.566406 L 708.894531 322.566406 C 710.3125 322.566406 710.792969 323.355469 710.183594 324.710938 C 706.597656 332.386719 694.496094 358.234375 694.035156 359.351562 C 693.488281 360.683594 693.839844 361.535156 695.195312 361.535156 L 711.40625 361.535156 C 712.871094 361.535156 713.960938 360.726562 714.597656 359.351562 L 730.742188 324.710938 C 731.355469 323.355469 732.46875 322.566406 733.824219 322.566406 L 798.015625 322.566406 C 799.128906 322.566406 799.980469 323.355469 799.371094 324.710938 C 795.785156 332.386719 783.726562 358.167969 783.246094 359.351562 C 782.675781 360.726562 782.984375 361.535156 784.402344 361.535156 L 800.617188 361.535156 C 801.839844 361.535156 803.039062 360.925781 803.804688 359.351562 L 819.910156 324.777344 C 820.542969 323.398438 821.722656 322.566406 823.078125 322.566406 L 865.136719 322.566406 C 866.539062 322.535156 867.789062 321.675781 868.324219 320.378906 L 871.035156 314.542969 C 871.558594 313.339844 871.144531 312.355469 869.832031 312.355469 Z M 983.90625 355.457031 C 983.90625 352.113281 986.59375 349.355469 990.023438 349.355469 C 993.457031 349.355469 996.121094 352.113281 996.121094 355.457031 C 996.257812 357.726562 995.125 359.886719 993.179688 361.0625 C 991.234375 362.242188 988.796875 362.242188 986.851562 361.0625 C 984.90625 359.886719 983.773438 357.726562 983.90625 355.457031 Z M 995.398438 355.457031 C 995.40625 354.035156 994.84375 352.667969 993.839844 351.664062 C 992.832031 350.65625 991.46875 350.09375 990.046875 350.101562 C 988.621094 350.089844 987.25 350.648438 986.242188 351.65625 C 985.230469 352.660156 984.667969 354.03125 984.671875 355.457031 C 984.671875 358.421875 987.074219 360.828125 990.035156 360.828125 C 993 360.828125 995.398438 358.421875 995.398438 355.457031 Z M 991.03125 355.808594 C 991.859375 355.808594 992.691406 355.371094 992.691406 354.035156 C 992.691406 353.46875 992.515625 352.703125 992.035156 352.460938 C 991.53125 352.113281 991.117188 352.113281 990.265625 352.113281 L 987.773438 352.113281 L 987.773438 358.976562 L 988.605469 358.976562 L 988.605469 355.785156 L 990.023438 355.785156 L 992.035156 358.976562 L 993.128906 358.976562 Z M 988.605469 355.042969 L 988.605469 352.769531 L 990.441406 352.769531 C 991.621094 352.769531 991.792969 353.269531 991.792969 353.882812 C 991.792969 354.953125 991.3125 355.0625 990.289062 355.0625 L 988.605469 355.0625 Z M 988.605469 355.042969 "/>
</g>
</svg>
