<?xml version="1.0" encoding="UTF-8"?>
<svg xmlns="http://www.w3.org/2000/svg" xmlns:xlink="http://www.w3.org/1999/xlink" width="1000px" height="px" viewBox="0 0 1000 1000" version="1.1">
<g id="surface1">
<path style=" stroke:none;fill-rule:evenodd;fill:rgb(0%,0%,0%);fill-opacity:1;" d="M 969.671875 513.367188 L 864.726562 513.367188 L 867.917969 500.613281 L 972.503906 500.613281 L 977.46875 482.886719 L 847.011719 482.886719 L 838.5 514.078125 C 836.722656 521.882812 838.144531 531.101562 847.363281 531.101562 L 964.707031 531.101562 Z M 850.191406 469.765625 C 852.320312 461.609375 854.804688 452.039062 870.050781 452.039062 L 985.277344 452.039062 L 980.664062 469.765625 Z M 534.660156 452.039062 L 530.046875 469.765625 L 628.96875 469.765625 C 644.914062 470.117188 643.316406 482.492188 642.4375 487.140625 C 641.019531 494.582031 631.441406 510.542969 617.976562 513.367188 L 544.589844 513.367188 L 551.679688 485.363281 L 525.792969 485.363281 L 514.101562 531.101562 L 627.550781 531.101562 C 654.140625 531.101562 670.085938 498.132812 670.796875 485.71875 C 671.507812 473.304688 671.152344 452.039062 633.570312 452.039062 Z M 484.3125 452.039062 C 510.90625 452.039062 519.769531 470.117188 517.285156 487.492188 C 511.257812 522.585938 480.761719 531.101562 469.417969 531.101562 L 395.324219 531.101562 C 368.738281 531.101562 359.871094 513.027344 362.351562 495.648438 C 368.378906 460.546875 406.320312 452.039062 417.664062 452.039062 L 430.425781 467.636719 C 415.179688 467.636719 389.65625 475.089844 387.523438 493.875 C 385.394531 512.667969 396.382812 515.507812 410.925781 515.507812 L 456.65625 515.507812 C 471.898438 515.507812 489.980469 508.058594 492.109375 489.265625 C 494.238281 470.476562 483.25 467.636719 468.710938 467.636719 L 430.425781 467.636719 L 417.664062 452.039062 Z M 837.078125 469.765625 L 736.746094 469.765625 C 721.5 469.765625 703.054688 479.691406 702.003906 493.875 C 700.585938 512.730469 710.859375 513.367188 725.398438 513.367188 L 773.972656 513.367188 C 785.402344 513.367188 792.25 510.378906 795.859375 500.601562 L 739.929688 500.601562 L 744.542969 482.878906 L 833.210938 482.878906 C 833.171875 484.414062 832.339844 485.957031 832.117188 487.492188 C 826.089844 522.585938 795.246094 531.101562 783.898438 531.101562 L 709.792969 531.101562 C 683.207031 531.101562 674.339844 513.027344 676.824219 495.648438 C 682.855469 460.546875 720.792969 452.039062 732.136719 452.039062 L 818.992188 452.039062 C 829.632812 452.039062 837.433594 456.644531 837.078125 469.765625 C 837.078125 469.765625 837.433594 456.644531 837.078125 469.765625 Z M 218.410156 452.039062 L 213.804688 469.765625 L 312.71875 469.765625 C 328.671875 470.117188 327.082031 482.492188 326.191406 487.140625 C 324.777344 494.582031 315.207031 510.542969 301.734375 513.367188 L 228.339844 513.367188 L 235.425781 485.363281 L 209.550781 485.363281 L 197.847656 531.101562 L 311.300781 531.101562 C 337.886719 531.101562 353.84375 498.132812 354.554688 485.71875 C 355.265625 473.304688 354.90625 452.039062 317.328125 452.039062 Z M 88.652344 423.144531 C 115.953125 423.144531 136.691406 424.917969 148.039062 425.980469 C 154.421875 426.6875 162.75 430.585938 162.574219 441.582031 C 162.757812 449.378906 162.046875 499.726562 160.628906 515.324219 C 160.277344 526.316406 158.855469 536.066406 148.042969 543.515625 C 134.429688 552.890625 118.972656 563.902344 88.660156 576.839844 C 58.347656 563.902344 42.886719 552.890625 29.273438 543.515625 C 18.464844 536.066406 17.042969 526.324219 16.6875 515.324219 C 15.269531 499.726562 14.5625 449.382812 14.738281 441.582031 C 14.558594 430.585938 22.886719 426.691406 29.269531 425.980469 C 40.617188 424.917969 61.355469 423.144531 88.652344 423.144531 C 88.652344 423.144531 61.355469 423.144531 88.652344 423.144531 Z M 88.652344 423.144531 "/>
<path style=" stroke:none;fill-rule:evenodd;fill:rgb(100%,100%,100%);fill-opacity:1;" d="M 88.652344 428.816406 C 113.296875 429.171875 135.804688 430.234375 145.382812 431.65625 C 149.988281 432.007812 156.019531 432.71875 156.371094 441.9375 C 157.082031 456.832031 155.308594 505.753906 154.425781 518.691406 C 153.363281 529.867188 151.546875 532.957031 145.734375 537.839844 C 137.9375 544.398438 105.675781 564.074219 88.660156 570.457031 C 71.644531 564.074219 39.375 544.398438 31.578125 537.839844 C 25.773438 532.957031 23.957031 529.867188 22.894531 518.691406 C 22.007812 505.753906 20.230469 456.832031 20.941406 441.9375 C 21.296875 432.71875 27.324219 432.007812 31.9375 431.65625 C 41.503906 430.234375 64.011719 429.171875 88.652344 428.816406 C 88.652344 428.816406 64.011719 429.171875 88.652344 428.816406 Z M 88.652344 428.816406 "/>
<path style=" stroke:none;fill-rule:evenodd;fill:rgb(0%,0%,0%);fill-opacity:1;" d="M 32.285156 486.605469 C 30.515625 486.070312 28.742188 486.253906 28.03125 489.796875 C 27.320312 493.339844 27.496094 495.464844 28.382812 497.59375 C 27.496094 499.003906 28.199219 505.039062 29.621094 506.101562 C 29.09375 507.875 30.507812 513.191406 32.285156 514.074219 C 31.929688 516.203125 35.117188 520.640625 37.070312 521.523438 C 35.652344 522.234375 40.515625 525.34375 42.742188 526.136719 C 45.757812 527.199219 51.074219 527.199219 53.199219 526.847656 C 54.976562 526.847656 55.503906 524.007812 53.910156 522.773438 C 52.320312 521.53125 35.480469 507.878906 34.945312 490.511719 C 35.117188 488.914062 34.050781 486.964844 32.285156 486.605469 C 32.285156 486.605469 34.050781 486.964844 32.285156 486.605469 Z M 85.640625 460.195312 C 84.222656 458.777344 82.984375 457.355469 80.5 457.355469 C 79.4375 455.40625 76.246094 453.101562 74.292969 452.925781 C 73.230469 451.15625 69.328125 448.671875 67.027344 448.847656 C 66.140625 447.25 57.808594 446.898438 56.035156 447.960938 C 54.4375 447.074219 47.703125 448.496094 46.992188 450.621094 C 44.6875 451.15625 40.074219 454.875 37.773438 460.371094 C 36.886719 461.964844 38.660156 462.496094 39.546875 461.433594 C 40.433594 460.371094 46.992188 457.355469 50.710938 458.601562 C 54.4375 459.839844 64.007812 464.449219 75.351562 480.222656 C 77.304688 483.0625 83.859375 485.011719 85.101562 478.984375 C 86.640625 471.523438 88.121094 463.03125 85.640625 460.195312 C 85.640625 460.195312 88.121094 463.03125 85.640625 460.195312 Z M 145.023438 486.605469 C 146.800781 486.070312 148.574219 486.253906 149.277344 489.796875 C 149.988281 493.339844 149.8125 495.464844 148.925781 497.59375 C 149.8125 499.003906 149.101562 505.039062 147.6875 506.101562 C 148.21875 507.875 146.800781 513.191406 145.023438 514.074219 C 145.382812 516.203125 142.1875 520.640625 140.242188 521.523438 C 141.65625 522.234375 136.796875 525.34375 134.570312 526.136719 C 131.558594 527.199219 126.238281 527.199219 124.113281 526.847656 C 122.339844 526.847656 121.804688 524.007812 123.402344 522.773438 C 125 521.53125 141.839844 507.878906 142.367188 490.511719 C 142.1875 488.914062 143.25 486.964844 145.023438 486.605469 C 145.023438 486.605469 143.25 486.964844 145.023438 486.605469 Z M 145.023438 486.605469 "/>
<path style=" stroke:none;fill-rule:evenodd;fill:rgb(0%,0%,0%);fill-opacity:1;" d="M 88.652344 540.847656 C 90.429688 541.558594 92.019531 541.03125 93.261719 540.136719 C 91.132812 540.136719 89.71875 538.722656 89.71875 536.417969 C 89.71875 534.109375 90.429688 532.6875 92.730469 533.058594 C 95.035156 533.398438 96.457031 532.695312 95.746094 528.972656 C 95.035156 525.253906 94.683594 523.480469 95.035156 521.710938 L 98.402344 510.546875 C 101.058594 510.195312 104.074219 509.300781 103.71875 505.753906 C 102.121094 505.402344 99.464844 506.816406 98.929688 508.238281 C 98.398438 509.128906 96.804688 508.238281 97.332031 507.175781 L 98.21875 504.691406 C 98.574219 503.625 99.8125 503.097656 100.523438 502.746094 C 101.234375 502.390625 102.296875 501.679688 105.3125 501.328125 C 106.199219 498.660156 107.4375 492.285156 104.960938 490.335938 C 104.074219 489.804688 104.777344 489.273438 105.671875 489.273438 C 106.558594 489.273438 107.796875 488.738281 108.683594 487.144531 C 109.566406 485.546875 116.839844 469.59375 122.867188 464.277344 C 128.890625 458.960938 139.53125 462.332031 142.1875 466.9375 C 144.847656 471.550781 146.265625 478.460938 145.734375 483.425781 C 145.734375 484.839844 145.023438 485.199219 144.144531 485.375 C 143.234375 485.609375 142.390625 486.03125 141.65625 486.617188 C 140.769531 487.328125 140.769531 488.214844 140.769531 488.917969 C 140.769531 489.625 138.644531 505.046875 127.472656 513.730469 C 125.347656 515.160156 123.21875 513.914062 123.21875 512.140625 C 123.21875 510.363281 123.21875 507.003906 124.996094 506.109375 C 123.925781 505.230469 124.460938 499.734375 125.707031 498.660156 C 124.820312 497.421875 125.351562 491.398438 127.121094 490.511719 C 126.234375 489.976562 125.636719 487.316406 125.707031 486.609375 C 126.058594 482.710938 121.984375 480.40625 120.386719 484.308594 C 121.628906 484.839844 123.226562 486.257812 122.339844 493.167969 L 112.765625 499.015625 C 113.300781 500.789062 112.234375 506.464844 111.167969 509.835938 C 110.105469 513.199219 109.042969 518.519531 106.382812 521.53125 C 103.726562 524.546875 101.949219 527.910156 100.359375 536.242188 C 100.003906 539.261719 97.519531 539.789062 95.925781 540.144531 C 98.414062 541.035156 97.167969 542.980469 95.574219 543.875 C 93.976562 544.753906 91.679688 546.171875 88.660156 546.171875 C 85.640625 546.171875 83.34375 544.753906 81.742188 543.875 C 80.152344 542.980469 78.910156 541.035156 81.390625 540.144531 C 79.792969 539.789062 77.3125 539.261719 76.960938 536.242188 C 75.363281 527.914062 73.59375 524.546875 70.933594 521.53125 C 68.269531 518.519531 67.207031 513.203125 66.144531 509.835938 C 65.082031 506.464844 64.015625 500.789062 64.550781 499.015625 L 54.976562 493.167969 C 54.09375 486.253906 55.6875 484.835938 56.925781 484.308594 C 55.328125 480.40625 51.253906 482.710938 51.609375 486.609375 C 51.671875 487.316406 51.074219 489.976562 50.191406 490.511719 C 51.960938 491.398438 52.496094 497.421875 51.609375 498.660156 C 52.847656 499.730469 53.378906 505.230469 52.320312 506.109375 C 54.09375 507.003906 54.09375 510.363281 54.09375 512.140625 C 54.09375 513.914062 51.960938 515.160156 49.839844 513.730469 C 38.667969 505.046875 36.542969 489.628906 36.542969 488.917969 C 36.542969 488.207031 36.542969 487.320312 35.65625 486.617188 C 34.925781 486.027344 34.078125 485.601562 33.171875 485.375 C 32.289062 485.199219 31.578125 484.839844 31.578125 483.425781 C 31.042969 478.460938 32.464844 471.550781 35.121094 466.9375 C 37.78125 462.332031 48.417969 458.960938 54.445312 464.277344 C 60.472656 469.59375 67.742188 485.550781 68.628906 487.144531 C 69.515625 488.738281 70.757812 489.273438 71.644531 489.273438 C 72.527344 489.273438 73.234375 489.804688 72.347656 490.335938 C 69.871094 492.285156 71.109375 498.660156 71.996094 501.328125 C 75.011719 501.679688 76.074219 502.390625 76.78125 502.746094 C 77.484375 503.097656 78.730469 503.625 79.082031 504.691406 L 79.96875 507.175781 C 80.503906 508.238281 78.90625 509.128906 78.371094 508.238281 C 77.835938 506.820312 75.179688 505.402344 73.582031 505.753906 C 73.230469 509.300781 76.246094 510.1875 78.902344 510.546875 L 82.269531 521.710938 C 82.625 523.484375 82.269531 525.257812 81.5625 528.972656 C 80.851562 532.695312 82.269531 533.402344 84.578125 533.058594 C 86.878906 532.695312 87.589844 534.109375 87.589844 536.417969 C 87.589844 538.714844 86.175781 540.136719 84.042969 540.136719 C 85.28125 541.03125 86.878906 541.558594 88.652344 540.847656 C 88.652344 540.847656 86.878906 541.558594 88.652344 540.847656 Z M 88.652344 540.847656 "/>
<path style=" stroke:none;fill-rule:evenodd;fill:rgb(0%,0%,0%);fill-opacity:1;" d="M 91.667969 460.195312 C 93.085938 458.777344 94.324219 457.355469 96.808594 457.355469 C 97.871094 455.40625 101.0625 453.101562 103.015625 452.925781 C 104.078125 451.15625 107.980469 448.671875 110.28125 448.847656 C 111.167969 447.25 119.5 446.898438 121.273438 447.960938 C 122.871094 447.074219 129.601562 448.496094 130.3125 450.621094 C 132.617188 451.15625 137.226562 454.875 139.53125 460.371094 C 140.414062 461.964844 138.644531 462.496094 137.757812 461.433594 C 136.871094 460.371094 130.308594 457.355469 126.585938 458.601562 C 122.867188 459.847656 113.292969 464.449219 101.945312 480.222656 C 99.996094 483.0625 93.433594 485.011719 92.191406 478.984375 C 90.660156 471.523438 89.183594 463.03125 91.667969 460.195312 C 91.667969 460.195312 89.183594 463.03125 91.667969 460.195312 Z M 91.667969 460.195312 "/>
</g>
</svg>
