<?xml version="1.0" encoding="UTF-8"?>
<svg xmlns="http://www.w3.org/2000/svg" xmlns:xlink="http://www.w3.org/1999/xlink" width="1000px" height="px" viewBox="0 0 1000 1598" version="1.1">
<g id="surface1">
<path style=" stroke:none;fill-rule:nonzero;fill:rgb(100%,100%,100%);fill-opacity:1;" d="M 947.402344 0.109375 C 975.046875 0.109375 997.398438 22.210938 997.398438 49.546875 L 997.398438 1547.03125 C 997.398438 1574.34375 975.046875 1596.46875 947.402344 1596.46875 L 52.097656 1596.46875 C 24.484375 1596.46875 2.125 1574.347656 2.125 1547.03125 L 2.125 49.546875 C 2.125 22.210938 24.484375 0.109375 52.097656 0.109375 L 947.402344 0.109375 "/>
<path style=" stroke:none;fill-rule:nonzero;fill:rgb(100%,94.901961%,0%);fill-opacity:1;" d="M 21.554688 222.097656 L 978.617188 222.097656 L 978.617188 1544.039062 C 978.617188 1555.035156 976.738281 1561.828125 969.320312 1569.203125 C 961.265625 1577.203125 954.203125 1577.921875 941.453125 1577.921875 L 50.128906 1578.007812 C 43.109375 1578.007812 37.722656 1575.769531 31.90625 1570.855469 C 24.707031 1564.6875 21.554688 1557 21.554688 1548.867188 L 21.554688 222.097656 "/>
<path style=" stroke:none;fill-rule:nonzero;fill:rgb(92.941176%,10.980392%,14.117647%);fill-opacity:1;" d="M 21.554688 155.589844 L 978.617188 155.589844 L 978.617188 223.503906 L 21.554688 223.503906 Z M 21.554688 155.589844 "/>
<path style=" stroke:none;fill-rule:nonzero;fill:rgb(100%,100%,100%);fill-opacity:1;" d="M 21.554688 87.539062 L 978.617188 87.539062 L 978.617188 155.457031 L 21.554688 155.457031 Z M 21.554688 87.539062 "/>
<path style=" stroke:none;fill-rule:nonzero;fill:rgb(0%,60.392157%,30.588235%);fill-opacity:1;" d="M 48.609375 18.457031 L 950.9375 18.457031 C 965.386719 18.457031 978.710938 32.382812 978.710938 45.96875 L 978.710938 89.324219 L 21.554688 89.324219 L 21.640625 51.195312 L 21.640625 48.023438 C 21.640625 32.652344 33.496094 19.976562 48.609375 18.457031 "/>
<path style=" stroke:none;fill-rule:nonzero;fill:rgb(0%,0%,0%);fill-opacity:1;" d="M 947.402344 0.109375 C 975.046875 0.109375 997.398438 22.210938 997.398438 49.546875 L 997.398438 1547.03125 C 997.398438 1574.34375 975.046875 1596.46875 947.402344 1596.46875 L 52.097656 1596.46875 C 24.484375 1596.46875 2.125 1574.347656 2.125 1547.03125 L 2.125 49.546875 C 2.125 22.210938 24.484375 0.109375 52.097656 0.109375 L 947.402344 0.109375 M 947.402344 19.84375 L 52.097656 19.84375 C 35.503906 19.84375 22.09375 33.164062 22.09375 49.546875 L 22.09375 1547.03125 C 22.09375 1563.4375 35.507812 1576.664062 52.097656 1576.664062 L 947.402344 1576.664062 C 964 1576.664062 977.414062 1563.4375 977.414062 1547.03125 L 977.414062 49.546875 C 977.414062 33.164062 964 19.84375 947.402344 19.84375 Z M 947.402344 19.84375 "/>
<path style=" stroke:none;fill-rule:nonzero;fill:rgb(0%,0%,0%);fill-opacity:1;" d="M 482.152344 305.996094 C 482.152344 305.996094 481.550781 311.761719 480.234375 315.136719 C 478.9375 318.261719 475.558594 320.367188 475.78125 322.464844 C 476.003906 324.523438 478.199219 327.003906 481.597656 328.71875 C 484.925781 330.464844 486.265625 331.804688 489.6875 332.675781 C 492.863281 333.460938 496.890625 335.785156 498.027344 333.125 C 499.171875 330.417969 497.449219 327.132812 495.527344 323.984375 C 492.171875 318.488281 490.472656 317.144531 485.53125 309.589844 C 484.480469 307.964844 483.652344 306.21875 482.152344 305.996094 "/>
<path style=" stroke:none;fill-rule:nonzero;fill:rgb(0%,0%,0%);fill-opacity:1;" d="M 457.085938 899.910156 C 457.421875 898.925781 465.335938 903.933594 469.449219 906.347656 C 478.105469 911.53125 481.996094 914.613281 489.640625 920.335938 C 495.703125 924.941406 498.628906 927.308594 504.714844 932.539062 C 512.179688 938.972656 516.207031 944.46875 518.222656 943.222656 C 521.128906 939.734375 513.460938 929.542969 506.679688 924.003906 C 500.085938 918.546875 493.265625 914.125 488.011719 910.683594 C 481.234375 906.164062 480.628906 905.140625 470.503906 898.34375 C 459.613281 891.058594 450.222656 881.898438 450.222656 881.898438 L 439.644531 873.585938 L 423.078125 859.617188 L 404.652344 842.65625 L 390.746094 827.164062 C 390.746094 827.164062 379.925781 813.9375 378.203125 811.386719 C 376.460938 808.859375 371.359375 800.679688 367.160156 793.753906 C 363.402344 787.539062 356.113281 777.890625 355.441406 777.0625 C 351.503906 772.300781 342.515625 774.222656 332.074219 768.078125 C 319.394531 760.589844 316.332031 753.75 316.332031 753.75 C 316.332031 753.75 315.859375 752.75 315.371094 752.210938 C 314.898438 751.648438 313.9375 750.957031 313.9375 750.957031 L 307.296875 746.332031 L 303.496094 743.828125 C 303.496094 743.828125 300.609375 741.4375 296.988281 739.894531 C 293.34375 738.285156 285.226562 733.570312 285.226562 733.570312 L 270.714844 724.316406 C 270.714844 724.316406 265.035156 719.757812 263.15625 718.238281 C 261.234375 716.789062 257.65625 714.710938 257.65625 714.710938 C 257.65625 714.710938 255.375 713.566406 254.683594 713.523438 C 253.992188 713.476562 250.972656 713.210938 250.972656 713.210938 C 250.972656 713.210938 248.175781 712.472656 245.335938 715.804688 C 242.496094 719.15625 243.191406 717.367188 247.820312 736.230469 C 249.652344 743.648438 249.472656 769.820312 251.441406 777.796875 C 253.945312 788.03125 261.144531 801.261719 261.882812 802.828125 C 262.601562 804.371094 263.113281 810.089844 263.113281 810.089844 C 263.113281 810.089844 262.800781 814.71875 263.292969 817.648438 C 265.484375 831.167969 285.273438 822.269531 289.636719 840.820312 C 293.929688 859.125 287.0625 877.382812 287.0625 877.382812 C 287.0625 877.382812 282.8125 886.460938 276.800781 887.886719 C 270.808594 889.273438 261.503906 876 254.777344 865.25 C 248.136719 854.675781 242.703125 840.820312 240.960938 836.417969 C 239.214844 832.015625 238.296875 831.054688 236.285156 827.859375 C 233.3125 823.097656 230.917969 823.972656 227.585938 816.460938 C 224.234375 808.953125 227.207031 805.933594 225.710938 799.390625 C 224.835938 795.769531 224.054688 795.367188 222.914062 790.179688 C 221.820312 785.019531 220.34375 768.589844 220.34375 768.589844 L 218.242188 753.304688 C 218.242188 753.304688 217.503906 746.332031 216.542969 741.953125 C 213.210938 726.664062 212.050781 711.871094 212.050781 711.871094 L 211.425781 705.792969 L 211.199219 699.515625 C 211.199219 699.515625 211 696.496094 211.738281 693.390625 C 212.476562 690.285156 213.976562 687.714844 213.976562 687.714844 C 213.976562 687.714844 217.0625 682.550781 217.597656 681.257812 C 218.113281 680.027344 224.417969 672.695312 224.417969 672.695312 C 224.417969 672.695312 227.726562 669.949219 233.117188 666.664062 C 238.527344 663.375 243.378906 663.601562 243.378906 663.601562 C 243.378906 663.601562 244.8125 663.464844 254.382812 664.652344 C 263.953125 665.835938 283.628906 671.0625 288.597656 672.339844 C 293.492188 673.660156 299.351562 675.714844 303.152344 677.835938 C 314.085938 683.78125 317.394531 681.257812 308.699219 674.441406 C 302.835938 669.859375 301.1875 667.804688 296.464844 663.515625 C 292.484375 659.847656 289.355469 657.410156 286.378906 654.039062 C 283.40625 650.59375 274.933594 638.105469 274.933594 638.105469 L 269.632812 630.28125 C 269.632812 630.28125 266.792969 627.066406 266.324219 626.839844 C 265.878906 626.574219 264.445312 625.476562 264.445312 625.476562 C 264.445312 625.476562 260.9375 625.65625 257.3125 624.964844 C 253.644531 624.226562 251.945312 629.367188 251.945312 629.367188 C 251.945312 629.367188 244.074219 644.050781 236.070312 653.035156 C 223.101562 667.628906 213.800781 677.550781 209.039062 685.328125 C 202.351562 696.101562 203.828125 707.902344 200.382812 713.351562 C 198.371094 716.550781 197.277344 717.019531 196.179688 719.8125 C 192.824219 728.285156 205.011719 732.929688 202.21875 742.316406 C 197.765625 757.203125 162.886719 771.925781 158.253906 769.46875 C 153.449219 766.945312 157.382812 746.808594 158.996094 740.304688 C 160.648438 733.757812 165.542969 724.101562 165.996094 723.613281 C 166.417969 723.140625 167.605469 720.859375 167.960938 718.941406 C 168.339844 717.019531 168.472656 712.660156 168.699219 710.246094 C 168.921875 707.808594 169.925781 703.96875 169.925781 703.96875 C 169.925781 703.96875 170.0625 703.140625 173.144531 696.460938 C 176.253906 689.734375 187.613281 674.089844 195.753906 659.160156 C 201.121094 649.414062 203.355469 643.515625 208.722656 633.75 C 213.664062 624.789062 222.136719 611.109375 222.136719 611.109375 C 222.136719 611.109375 225.710938 604.136719 227.390625 601.546875 C 229.089844 598.882812 232.664062 593.859375 236.019531 588.894531 C 239.398438 583.957031 240.222656 580.246094 244.628906 576.179688 C 248.273438 572.78125 250.753906 570.972656 255.515625 569.453125 C 262.605469 567.105469 267.460938 568.359375 274.703125 570.371094 C 282.214844 572.425781 287.378906 575.867188 292.300781 579.933594 C 297.199219 584.046875 300.84375 588.585938 300.84375 588.585938 L 303.234375 592.113281 L 304.710938 592.984375 L 309.273438 595.914062 L 319.714844 602.816406 C 319.714844 602.816406 344.492188 619.667969 345.878906 620.585938 C 347.199219 621.457031 351.644531 625.101562 352.515625 625.390625 C 353.4375 625.65625 360.03125 618.503906 372.980469 609.589844 C 387.960938 599.199219 393.257812 599.980469 398.226562 597.277344 C 403.121094 594.570312 405.132812 592.339844 408.984375 588.492188 C 414.796875 582.683594 414.839844 579.578125 421.4375 571.464844 C 428.078125 563.375 434.292969 558.839844 434.292969 558.839844 C 434.292969 558.839844 435.210938 557.921875 447.039062 544.558594 C 458.847656 531.238281 464.078125 521.15625 464.078125 521.15625 L 470.5625 508.171875 C 470.5625 508.171875 479.953125 487.996094 482.972656 480.011719 C 486.015625 472.015625 486.015625 469.351562 486.015625 469.351562 C 486.015625 469.351562 486.460938 467.253906 484.179688 463.183594 C 481.832031 459.136719 479.414062 460.96875 474.921875 461.890625 C 466.3125 463.722656 461.082031 461.484375 452.382812 459.96875 C 444.425781 458.644531 440.265625 456.257812 432.28125 454.9375 C 424.1875 453.578125 419.472656 452.238281 411.351562 453.019531 C 410.121094 453.152344 407.640625 453.667969 406.453125 454.066406 C 401.871094 455.585938 400.597656 455.945312 397.199219 457.910156 C 393.261719 459.746094 390.667969 460.324219 386.308594 460.4375 C 383.289062 460.527344 381.457031 460.617188 378.664062 459.519531 C 376.738281 458.78125 375.640625 458.226562 374.121094 456.863281 C 373.207031 456.035156 372.714844 455.496094 372.019531 454.425781 C 371.933594 453.578125 371.664062 453.621094 372.492188 452.238281 C 373.296875 450.828125 374.300781 450.582031 374.300781 450.582031 L 378.015625 449.664062 C 378.015625 449.664062 383.246094 448.304688 383.738281 448.167969 C 384.210938 448.03125 389.195312 446.421875 391.382812 445.730469 C 393.597656 445.039062 396.015625 443.765625 396.015625 443.765625 C 396.015625 443.765625 397.355469 441.621094 396.839844 440.390625 C 396.191406 439.003906 393.21875 438.871094 393.21875 438.871094 C 393.21875 438.871094 389.058594 440.390625 388.589844 440.523438 C 388.140625 440.613281 381.5 442.710938 381.5 442.710938 C 381.5 442.710938 376.289062 443.855469 372.246094 444.8125 C 368.175781 445.730469 362.359375 446.199219 362.359375 446.199219 L 360.617188 445.730469 C 360.617188 445.730469 358.648438 444.410156 358.335938 443.027344 C 358.046875 441.796875 357.867188 440.878906 357.640625 439.472656 C 356.769531 434.332031 355.722656 431.226562 356.949219 426.15625 C 357.421875 424.03125 357.914062 422.84375 358.828125 420.882812 C 359.609375 419.25 360.125 418.308594 361.128906 416.765625 L 364.332031 411.539062 L 370.371094 402.621094 C 372.449219 400.519531 373.8125 399.472656 376.425781 397.996094 C 380.273438 395.851562 382.507812 395.246094 387.316406 394.707031 C 392.035156 394.195312 392.683594 394.242188 399.371094 392.742188 C 406.097656 391.222656 410.863281 388.5625 410.863281 388.5625 C 410.863281 388.5625 426.941406 382.664062 436.734375 377.855469 C 446.996094 372.832031 451.46875 367.464844 462.089844 363.308594 C 466.585938 361.566406 469.199219 360.738281 473.828125 359.554688 C 474.410156 359.175781 474.699219 358.816406 474.878906 358.125 C 475.328125 356.445312 472.734375 355.664062 470.945312 355.84375 C 469.335938 355.976562 465.667969 357.675781 464.839844 355.84375 C 464.210938 354.4375 468.191406 353.609375 468.191406 353.609375 C 468.191406 353.609375 470.070312 352.738281 470.117188 351.6875 C 470.164062 350.078125 467.414062 351.128906 466.179688 350.992188 C 459.941406 350.300781 459.449219 349.160156 455.132812 348.109375 C 450.058594 346.839844 447.3125 345.273438 442.03125 345.050781 C 437.378906 344.867188 433.019531 345.855469 430.09375 346.546875 C 427.210938 347.28125 427.121094 344.445312 428.257812 343.886719 C 436.421875 340.085938 436.597656 339.773438 442.371094 339.503906 C 445.519531 339.371094 449.925781 340.042969 450.417969 340.285156 C 450.890625 340.554688 457.195312 340.242188 458.804688 338.589844 C 460.460938 336.980469 453.640625 337.070312 450.417969 335.796875 C 447.449219 334.613281 442.90625 334.277344 442.996094 332.308594 C 443.152344 330.339844 445.347656 331.4375 446.910156 331.035156 C 448.875 330.566406 450.015625 330.613281 452.027344 330.34375 C 455.652344 329.851562 455.964844 329.515625 461.332031 329.070312 C 466.628906 328.558594 474.277344 330.816406 474.277344 330.816406 C 474.277344 330.816406 482.304688 334.371094 486.242188 336.25 C 490.175781 338.078125 494.9375 339.039062 494.9375 339.039062 C 494.9375 339.039062 500.527344 339.820312 504.777344 337.164062 C 509.09375 334.523438 506.65625 332.78125 505.15625 330.347656 C 503.679688 328.066406 501.804688 324.761719 504.550781 318.5 C 506.992188 313.046875 508.265625 306.679688 508.960938 306.097656 C 509.835938 305.40625 513.210938 310.300781 515.398438 312.3125 C 523.246094 319.644531 533.625 323.265625 543.417969 338.59375 C 544.179688 339.820312 547.800781 337.855469 559.160156 339.597656 C 570.515625 341.339844 580.449219 353.496094 582.953125 356.40625 C 585.550781 359.332031 588.902344 359.175781 588.902344 359.175781 L 594.359375 359.914062 L 614.164062 360.246094 C 614.164062 360.246094 623.15625 358.636719 628.34375 360.609375 C 631.964844 361.96875 644.039062 370.039062 638.539062 373.097656 C 634.695312 375.246094 631.074219 370.53125 627.585938 370.304688 C 623.46875 370.039062 621.679688 370.820312 618.011719 371.734375 C 610.320312 373.660156 593.820312 378.640625 599.8125 380.652344 C 600.253906 380.828125 601.109375 380.964844 601.109375 380.964844 L 604.058594 381.476562 C 604.058594 381.476562 611.304688 383.128906 615.6875 384.851562 C 622.300781 387.464844 625.4375 390.351562 631.515625 393.925781 C 635.003906 395.933594 636.527344 397.949219 640.324219 399.085938 C 643.8125 400.09375 646.050781 399.085938 649.628906 399.691406 C 654.324219 400.519531 656.960938 401.480469 661.253906 403.535156 C 667.648438 406.597656 669.972656 410.308594 675.699219 414.417969 C 678.5625 416.496094 680.972656 416.8125 683.121094 419.605469 C 683.617188 420.230469 684.019531 420.566406 684.246094 421.300781 C 685.003906 423.851562 680.039062 422.351562 677.402344 421.929688 C 674.496094 421.4375 673.289062 420.007812 670.605469 418.777344 C 666.625 416.902344 664.746094 414.84375 660.40625 414.0625 C 657.277344 413.457031 655.398438 413.929688 652.179688 414.105469 C 649.050781 414.238281 647.394531 414.710938 644.261719 414.753906 C 638.941406 414.84375 635.945312 414.375 630.710938 413.277344 C 624.851562 412.050781 621.945312 409.769531 616.132812 408.5625 C 609.558594 407.199219 597.933594 401.570312 599.050781 407.199219 C 599.628906 409.90625 605.800781 412.183594 605.800781 412.183594 C 605.800781 412.183594 610.050781 414.464844 614.074219 416.25 C 618.101562 417.992188 620.335938 420.65625 620.335938 420.65625 L 623.109375 422.710938 C 623.109375 422.710938 625.96875 426.644531 629.726562 431.089844 C 633.390625 435.472656 639.921875 435.335938 639.921875 435.335938 C 639.921875 435.335938 643.859375 435.335938 652.351562 437.078125 C 660.804688 438.824219 669.527344 444.050781 669.527344 444.050781 C 669.527344 444.050781 676.097656 448.5625 679.945312 453.101562 C 683.746094 457.640625 681.554688 459.917969 681.0625 460.386719 C 680.621094 460.878906 680.792969 460.652344 680.257812 460.878906 C 679.8125 461.101562 675.074219 455.15625 675.074219 455.15625 L 671.675781 452.273438 C 671.675781 452.273438 668.363281 449.949219 664.074219 448.5625 C 659.777344 447.203125 658.347656 448.117188 658.347656 448.117188 C 658.347656 448.117188 649.222656 450.664062 641.265625 450.441406 C 633.390625 450.21875 629.277344 447.066406 629.277344 447.066406 L 624.269531 443.710938 C 624.269531 443.710938 616.753906 436.671875 616.484375 440.003906 C 616.304688 442.261719 619.796875 444.765625 619.796875 444.765625 C 619.796875 444.765625 622.210938 447.199219 623.824219 448.746094 C 626.863281 451.738281 628.121094 453.238281 631.605469 456.339844 C 635.09375 459.472656 637.238281 459.472656 637.238281 459.472656 C 637.238281 459.472656 639.117188 459.917969 639.832031 460.050781 C 640.550781 460.1875 641.800781 460.523438 641.800781 460.523438 C 641.800781 460.523438 642.964844 460.96875 648.417969 463.183594 C 653.828125 465.371094 659.6875 470.132812 659.6875 470.132812 C 659.6875 470.132812 660.226562 470.582031 661.03125 470.738281 C 661.835938 470.828125 663.445312 471.632812 663.890625 471.765625 C 664.382812 471.878906 665.769531 471.878906 668.902344 472.324219 C 672.078125 472.796875 670.871094 474.804688 670.871094 474.804688 L 670.332031 475.566406 L 667.734375 477.308594 C 667.734375 477.308594 664.382812 478.269531 662.101562 478.378906 C 659.777344 478.515625 656.46875 477.222656 656.46875 477.222656 L 649.445312 474.582031 C 649.445312 474.582031 642.335938 472.707031 640.8125 472.457031 C 639.292969 472.234375 632.945312 470.960938 631.871094 470.738281 C 630.84375 470.496094 627.667969 469.351562 626.820312 468.863281 C 625.96875 468.394531 624.402344 468.082031 620.558594 466.203125 C 616.753906 464.328125 615.234375 462.160156 610.496094 460.660156 C 605.710938 459.140625 602.804688 458.828125 599.226562 461.3125 C 593.054688 465.554688 608.527344 466.25 616.222656 470.089844 C 627.582031 475.679688 633.972656 479.789062 636.65625 485.828125 C 639.382812 491.882812 642.113281 494.074219 642.113281 494.074219 C 642.113281 494.074219 650.121094 498.097656 653.695312 502.316406 C 655.664062 504.597656 655.933594 506.476562 657.898438 508.753906 C 662.277344 513.894531 670.777344 513.601562 672.480469 517.960938 C 674.089844 522.027344 665.589844 520.195312 661.164062 519.792969 C 653.203125 519.011719 651.277344 511.722656 643.855469 508.796875 C 639.652344 507.121094 636.972656 507.121094 632.675781 505.648438 C 624.847656 503.078125 621.183594 499.703125 613.355469 497.269531 C 608.613281 495.816406 600.027344 489.582031 601.101562 494.382812 C 601.277344 495.546875 601.996094 496.441406 602.304688 497.136719 C 602.710938 497.828125 604.675781 500.375 604.675781 500.375 C 604.675781 500.375 607.3125 503.859375 608.519531 504.777344 C 609.640625 505.742188 614.691406 509.539062 621.9375 513.472656 C 629.09375 517.40625 635.351562 524.960938 635.351562 524.960938 C 635.351562 524.960938 637.5 528.046875 638.527344 530.191406 C 639.601562 532.609375 638.839844 533.34375 640.539062 536.695312 C 642.105469 540.023438 642.867188 540.671875 645.011719 542.730469 C 650.289062 547.804688 655.835938 546.796875 662.539062 549.546875 C 664.375 550.328125 664.507812 550.59375 666.476562 552.695312 C 668.445312 554.773438 666.117188 555.664062 666.117188 555.664062 C 666.117188 555.664062 658.652344 557.589844 653.820312 557.183594 C 647.5625 556.695312 644.742188 554.769531 638.660156 551.730469 C 632.488281 548.714844 629.269531 543.285156 628.644531 542.949219 C 628.109375 542.589844 626.585938 540.984375 625.425781 540.15625 C 624.265625 539.332031 621.265625 538.703125 618.582031 537.964844 C 615.855469 537.230469 614.332031 537.09375 611.609375 536.355469 C 607.894531 535.304688 604.046875 533.675781 602.300781 533.117188 C 600.558594 532.511719 596.578125 531.796875 593.671875 533.515625 C 587.859375 536.960938 602.703125 539.28125 607.3125 544.222656 C 609.679688 546.703125 610.664062 548.449219 612.902344 551.0625 C 614.601562 553.074219 615.316406 554.484375 617.421875 556.046875 C 618.847656 557.09375 621.488281 558.234375 621.488281 558.234375 C 621.488281 558.234375 625.0625 559.890625 630.296875 562.773438 C 635.527344 565.652344 641.652344 573.808594 641.652344 573.808594 L 645.367188 579.488281 L 647.558594 582.726562 L 648.140625 584.226562 L 648.941406 586.054688 C 648.941406 586.054688 651.628906 589.542969 653.59375 590.683594 C 655.5625 591.867188 655.203125 592.894531 655.203125 592.894531 C 655.203125 592.894531 654.984375 593.613281 653.59375 594.394531 C 652.253906 595.222656 651.492188 594.527344 649.527344 593.949219 C 647.558594 593.390625 646.261719 591.511719 644.5625 590.148438 C 642.773438 588.71875 640.894531 585.253906 637.722656 583.289062 C 634.902344 581.589844 631.238281 580.984375 629.804688 580.539062 C 628.417969 580.027344 624.929688 577.835938 623.542969 577.234375 C 622.203125 576.695312 618.582031 575.042969 618.582031 575.042969 C 618.582031 575.042969 611.609375 571.152344 607.753906 570.105469 C 603.914062 569.03125 606.371094 571.378906 606.371094 571.378906 C 606.371094 571.378906 609.816406 576.742188 613.121094 578.886719 C 617.417969 581.722656 623.453125 584.230469 621.484375 586.527344 C 620.140625 588.027344 618.355469 587.488281 616.386719 587.265625 C 613.167969 586.886719 609.277344 583.039062 609.277344 583.039062 C 609.277344 583.039062 607.667969 581.992188 600.46875 579.710938 C 593.3125 577.363281 595.949219 581.296875 597.605469 583.421875 C 599.21875 585.476562 601.410156 586.660156 601.410156 586.660156 L 606.285156 588.851562 L 608.519531 589.542969 C 608.519531 589.542969 610.492188 589.898438 616.972656 591.417969 C 623.457031 592.894531 627.039062 596.046875 627.039062 596.046875 C 627.039062 596.046875 630.523438 599.289062 635.351562 602.863281 C 640.269531 606.484375 645.101562 607.402344 647.785156 607.761719 C 650.46875 608.09375 650.378906 609.972656 650.378906 609.972656 C 650.378906 609.972656 650.734375 611.695312 650.5625 612.25 C 650.472656 612.832031 649.890625 613.304688 649.304688 613.304688 C 648.765625 613.304688 648.503906 613.527344 647.789062 613.90625 C 647.074219 614.265625 644.300781 614.710938 644.300781 614.710938 C 644.300781 614.710938 637.054688 614.488281 631.332031 613.078125 C 625.699219 611.695312 620.6875 607.761719 620.148438 607.539062 C 619.703125 607.316406 614.425781 604.390625 610.757812 603.226562 C 607.226562 602.042969 601.546875 602.554688 600.917969 602.78125 C 600.339844 603.003906 598.371094 603.316406 595.015625 604.300781 C 591.621094 605.195312 595.867188 606.488281 595.867188 606.488281 L 598.28125 606.710938 L 604.050781 607.160156 C 604.050781 607.160156 610.042969 607.851562 615.097656 609.726562 C 620.148438 611.558594 623.460938 615.269531 626.8125 618.667969 C 630.164062 621.996094 633.878906 624.1875 633.878906 624.1875 L 636.5625 625.929688 L 637.949219 626.980469 L 638.308594 627.894531 C 638.308594 627.894531 638.175781 628.367188 637.949219 628.945312 C 637.726562 629.546875 636.878906 629.992188 636.878906 629.992188 C 636.878906 629.992188 635.625 629.769531 635.089844 629.769531 C 634.460938 629.769531 630.664062 627.757812 627.847656 626.53125 C 624.9375 625.257812 623.460938 624.046875 620.332031 623.285156 C 617.648438 622.640625 614.074219 622.347656 613.265625 622.59375 C 612.460938 622.820312 606.554688 623.648438 601.996094 623.957031 C 597.4375 624.316406 593.496094 624.382812 588.128906 623.734375 C 580.484375 622.820312 570.335938 616.78125 569.035156 618.460938 C 566.398438 621.992188 574.449219 622.996094 578.382812 625.253906 C 583.75 628.359375 593.050781 631.15625 593.050781 631.15625 C 593.050781 631.15625 599.847656 632.652344 603.828125 634.527344 C 612.550781 638.574219 615.1875 644.5625 622.210938 650.867188 C 626.054688 654.394531 629.1875 655.914062 634.371094 656.675781 C 638.847656 657.328125 638.753906 656.789062 645.820312 655.402344 C 652.929688 653.996094 657.226562 647.269531 659.28125 649.730469 C 659.6875 650.199219 659.503906 650.644531 659.414062 651.339844 C 659.28125 652.03125 658.703125 653.304688 658.703125 653.304688 C 658.703125 653.304688 657.898438 654.445312 656.644531 655.742188 C 655.347656 657.011719 650.472656 659.675781 647.925781 660.722656 C 645.375 661.773438 639.117188 663.519531 631.246094 663.273438 C 623.371094 663.046875 612.285156 657.011719 612.285156 657.011719 L 604.324219 653.660156 C 604.324219 653.660156 600.65625 651.941406 598.152344 651.003906 C 591.535156 648.496094 587.332031 648.722656 580.53125 646.933594 C 576.328125 645.796875 573.558594 644.609375 569.753906 643.828125 C 565.910156 643.003906 568.101562 644.523438 568.460938 645.058594 C 570.246094 647.492188 572.660156 648.273438 575.703125 649.683594 C 579.730469 651.648438 582.546875 651.25 586.660156 652.992188 C 591.265625 654.847656 595.292969 657.464844 597.84375 659.117188 C 600.347656 660.726562 602.226562 662.558594 604.6875 665.109375 L 613.136719 672.347656 C 613.136719 672.347656 615.105469 673.957031 615.328125 674.628906 C 615.550781 675.324219 616.488281 677.0625 616.042969 679.859375 C 615.550781 682.652344 613.269531 680.6875 613.269531 680.6875 L 611.035156 679.257812 L 608.796875 677.199219 L 605.261719 674.273438 C 605.261719 674.273438 602.222656 671.523438 596.988281 668.863281 C 591.800781 666.160156 585.539062 665.488281 585.539062 665.488281 C 585.539062 665.488281 579.996094 664.664062 580.175781 666.40625 C 580.441406 668.125 581.6875 668.285156 586.074219 669.421875 C 590.5 670.5625 593.40625 672.796875 593.40625 672.796875 C 593.40625 672.796875 597.925781 676.152344 601.1875 679.859375 C 604.40625 683.570312 605.347656 687.167969 605.347656 687.167969 C 605.347656 687.167969 607.003906 690.207031 611.164062 694.230469 C 615.324219 698.296875 617.515625 696.886719 617.289062 698.859375 C 617.0625 700.824219 615.230469 701.183594 615.230469 701.183594 C 615.230469 701.183594 614.15625 701.089844 613.710938 701.089844 C 613.265625 701.089844 612.191406 700.488281 611.027344 700.039062 C 609.867188 699.59375 605.484375 696.554688 605.484375 696.554688 C 605.484375 696.554688 598.597656 690.96875 597.835938 690.433594 C 596.984375 689.828125 590.503906 684.976562 590.503906 684.976562 C 590.503906 684.976562 586.65625 682.519531 583.925781 681.132812 C 581.109375 679.773438 577.398438 678.34375 575.296875 677.648438 C 573.242188 676.976562 569.390625 676.753906 569.390625 676.753906 C 569.390625 676.753906 564.789062 676.0625 561.972656 675.007812 C 557.542969 673.308594 552.398438 668.59375 551.820312 668.371094 C 551.191406 668.125 547.078125 666.71875 546.273438 666.851562 C 545.472656 666.941406 543.589844 674.71875 543.144531 679.210938 C 541.265625 698.03125 546.273438 710.519531 554.054688 727.777344 C 565.277344 752.851562 596.539062 784.023438 596.539062 784.023438 C 596.539062 784.023438 604.410156 788.472656 607.722656 791.132812 C 617.066406 798.441406 632.539062 808.789062 646.269531 822.464844 C 657.984375 834.195312 673.550781 855.003906 673.550781 855.003906 C 673.550781 855.003906 682.582031 867.5625 686.789062 876.457031 C 691.886719 887.363281 696.003906 903.996094 696.003906 903.996094 C 696.003906 903.996094 696.359375 906.851562 696.628906 907.480469 C 696.984375 908.058594 697.789062 908.820312 698.328125 908.820312 L 703.78125 909 C 704.320312 909 710.535156 908.554688 714.652344 907.523438 C 718.722656 906.496094 728.378906 902.070312 734.820312 898.722656 C 741.167969 895.320312 748.816406 888.886719 748.816406 888.886719 C 748.816406 888.886719 750.289062 887.632812 757.71875 879.320312 C 765.234375 871.007812 770.0625 858.539062 771.890625 853.824219 C 773.683594 849.152344 775.160156 840.148438 776.234375 824.769531 C 777.390625 809.328125 775.292969 793.054688 775.292969 793.054688 C 775.292969 793.054688 772.476562 770.347656 770.773438 762.613281 C 769.074219 754.929688 764.960938 742.324219 764.960938 742.324219 C 764.960938 742.324219 762.101562 731.109375 761.207031 724.023438 C 760.265625 716.9375 760.132812 705.40625 760.132812 705.40625 C 760.132812 705.40625 760.132812 698.347656 762.410156 685.296875 C 764.78125 672.3125 772.746094 659.210938 772.746094 659.210938 C 772.746094 659.210938 774.980469 654.808594 783.570312 644.527344 C 792.378906 634.003906 795.191406 632.347656 803.871094 626.066406 C 810.757812 621.128906 819.652344 613.171875 822.566406 615.050781 C 825.785156 617.058594 819.429688 621.085938 817.285156 623.183594 C 811.875 628.546875 801.769531 638.023438 793.585938 652.304688 C 786.429688 664.664062 783.746094 672.84375 781.960938 680.910156 C 780.167969 688.957031 780.933594 697.804688 781.15625 700.824219 C 781.425781 703.84375 783.078125 702.75 783.078125 702.75 C 783.078125 702.75 800.472656 688.777344 809.910156 678.207031 C 820.152344 666.765625 829.273438 646.40625 832.847656 646.226562 C 835.265625 646.070312 836.382812 651.523438 835.800781 654.050781 C 833.570312 664.621094 832.8125 665.9375 829.359375 672.957031 C 825.425781 681 821.765625 684.578125 816.304688 691.996094 C 810.578125 699.777344 807.765625 702.75 803.160156 713.046875 C 796.5 727.867188 800.386719 739.308594 800.386719 739.308594 C 800.386719 739.308594 801.191406 746.261719 804.320312 746.171875 C 809.558594 745.988281 821.046875 731.484375 828.5625 719.617188 C 834.109375 710.925781 836.121094 700.867188 839.746094 695.59375 C 843.050781 690.921875 845.960938 703.191406 844.527344 710.433594 C 842.871094 719.035156 838.625 726.769531 829.277344 738.949219 C 820.15625 750.835938 820.425781 762.148438 820.425781 762.148438 C 820.425781 762.148438 819.484375 767.308594 818.722656 778.574219 C 818.011719 789.789062 821.230469 806.824219 821.230469 806.824219 C 821.230469 806.824219 824.085938 821.058594 824.675781 831.851562 C 825.210938 842.710938 824.851562 867.367188 814.699219 886.5625 C 810.675781 894.25 802.039062 904.890625 802.039062 904.890625 C 802.039062 904.890625 795.378906 911.730469 789.921875 915.703125 C 784.460938 919.683594 771.359375 925.898438 771.359375 925.898438 C 771.359375 925.898438 762.285156 929.023438 761.03125 929.296875 C 759.6875 929.652344 758.886719 930.769531 758.886719 930.769531 C 758.886719 930.769531 759.6875 932.515625 760.046875 933.230469 C 760.359375 933.945312 762.90625 940.199219 762.90625 940.199219 C 762.90625 940.199219 765.632812 949.050781 766.664062 956.070312 C 767.691406 963.085938 766.484375 964.695312 765.503906 970.058594 C 764.515625 975.203125 762.285156 972.828125 761.699219 982.929688 C 761.210938 991.871094 765.234375 996.339844 764.515625 1006.355469 C 764.210938 1010.734375 759.242188 1000.8125 756.824219 996.613281 C 751.726562 987.488281 752.933594 973.457031 752.847656 969.972656 C 752.710938 966.484375 752.4375 962.636719 751.144531 958.257812 C 749.582031 952.535156 747.210938 948.113281 744.574219 944.628906 C 741.886719 941.183594 739.070312 939.21875 738.128906 939.578125 C 737.191406 939.890625 737.101562 941.722656 737.101562 942.617188 C 737.054688 943.601562 738.933594 946.90625 739.335938 947.625 C 739.828125 948.292969 743.183594 954.417969 743.183594 954.417969 C 743.183594 954.417969 744.65625 959.15625 745.238281 968.367188 C 745.824219 977.484375 743.003906 988.835938 743.003906 988.835938 C 743.003906 988.835938 739.335938 1001.578125 735.492188 1009.085938 C 731.191406 1017.355469 721.671875 1028.617188 721.671875 1028.617188 C 721.671875 1028.617188 714.828125 1034.875 709.683594 1045.15625 C 704.632812 1055.433594 708.972656 1059.90625 707.089844 1061.246094 C 705.121094 1062.542969 701.097656 1055.300781 700.023438 1050.429688 C 698.996094 1045.871094 699.484375 1043.722656 701.367188 1038.628906 C 703.109375 1033.710938 707.226562 1026.601562 707.226562 1026.601562 L 713.351562 1016.1875 C 713.351562 1016.1875 720.777344 1002.066406 723.101562 991.78125 C 725.425781 981.59375 722.746094 970.242188 722.746094 970.242188 C 722.746094 970.242188 722.433594 966.488281 719.882812 966.664062 C 717.289062 966.796875 715.503906 969.035156 714.425781 971.761719 C 712.324219 977.390625 715.324219 976.367188 712.097656 985.75 C 709.597656 993.125 708.878906 992.144531 707.539062 996.523438 C 705.925781 1001.75 705.078125 1007.113281 705.171875 1010.378906 C 705.304688 1013.597656 703.515625 1012.257812 703.515625 1012.257812 C 703.515625 1012.257812 700.386719 1006.445312 700.386719 999.207031 C 700.386719 995.273438 700.566406 993.039062 701.015625 989.101562 C 701.730469 982.800781 704.324219 973.148438 704.324219 973.148438 C 704.324219 973.148438 707.097656 963.625 706.515625 954.953125 C 705.847656 946.191406 702.804688 944.585938 702.804688 944.585938 C 702.804688 944.585938 702.003906 943.425781 698.601562 943.601562 C 695.25 943.871094 695.425781 949.902344 695.425781 949.902344 C 695.425781 949.902344 694.398438 958.53125 693.058594 963.894531 C 689.347656 978.6875 684.382812 986.464844 675.617188 998.9375 C 667.65625 1010.199219 656.878906 1020.125 651.464844 1024.773438 C 646.097656 1029.511719 629.550781 1041.535156 629.550781 1041.535156 L 610.144531 1054.449219 C 610.144531 1054.449219 602.453125 1061.960938 598.960938 1070.902344 C 595.386719 1079.796875 595.5625 1086.769531 597.621094 1094.945312 C 599.679688 1103.171875 602.628906 1106.925781 604.195312 1109.246094 C 605.714844 1111.488281 608.714844 1115.503906 609.699219 1120.246094 C 610.324219 1123.148438 609.878906 1124.894531 610.054688 1127.84375 C 610.238281 1130.4375 610.59375 1131.867188 610.503906 1134.503906 C 610.414062 1138.617188 611.171875 1141.519531 608.800781 1144.871094 C 607.101562 1147.417969 602.449219 1149.652344 602.449219 1149.652344 C 602.449219 1149.652344 597.175781 1151.976562 594.039062 1153.898438 C 561.035156 1173.789062 549.324219 1186.707031 530.71875 1208.875 C 524.8125 1215.980469 529.152344 1215.539062 522.847656 1223.941406 C 519.023438 1228.949219 510.191406 1228.949219 506.996094 1234.933594 C 502.546875 1243.113281 517.011719 1251.160156 500.308594 1258.359375 C 478.777344 1267.65625 441.722656 1260.992188 440.984375 1258.089844 C 438.972656 1250.132812 448.230469 1240.929688 451.515625 1237.261719 C 466.585938 1220.8125 480.050781 1220.40625 484.992188 1206.777344 C 486.0625 1203.871094 485.640625 1201.371094 497.644531 1192.472656 C 506.074219 1186.257812 539.75 1160.917969 554.464844 1144.023438 C 559.515625 1138.210938 563.855469 1134.371094 566.046875 1128.109375 C 568.285156 1121.757812 563.855469 1117.785156 563.855469 1117.785156 L 557.816406 1107.949219 L 546.234375 1087.253906 C 546.234375 1087.253906 541.363281 1076.257812 538.722656 1069.910156 C 535.996094 1063.5625 530.941406 1046.488281 530.941406 1046.488281 C 530.941406 1046.488281 527.234375 1031.113281 526.601562 1021.097656 C 525.484375 1003.132812 527.945312 992.675781 532.6875 975.242188 C 538.8125 952.625 552.722656 943.148438 558.265625 920.710938 C 559.878906 914.1875 560.234375 903.007812 556.925781 903.546875 C 553.792969 904.128906 553.527344 912.929688 551.113281 918.835938 C 542.167969 941.09375 530.359375 950.839844 523.878906 973.898438 C 519.539062 989.5 517.753906 998.753906 517.792969 1014.933594 C 517.84375 1024.183594 517.484375 1022.488281 519.851562 1038.535156 C 520.789062 1044.433594 522.222656 1047.605469 523.96875 1053.371094 C 525.21875 1057.484375 528.574219 1065.171875 528.574219 1065.171875 C 528.574219 1065.171875 533.179688 1075.316406 534.789062 1082.425781 C 535.277344 1084.886719 535.910156 1086.265625 535.726562 1088.726562 C 535.414062 1092.972656 536.175781 1093.867188 534.121094 1097.710938 C 531.570312 1102.496094 533.128906 1105.308594 524.996094 1107.09375 C 517.75 1108.613281 502.949219 1103.789062 502.949219 1103.789062 C 502.949219 1103.789062 442.105469 1085.375 403.265625 1090.691406 C 395.574219 1091.71875 391.4375 1094.535156 383.699219 1094.402344 C 376.65625 1094.308594 373.078125 1088.808594 366.035156 1090.914062 C 364.605469 1091.316406 364.15625 1092.34375 362.859375 1093.195312 C 352.574219 1100.34375 360.445312 1112.234375 333.347656 1106.066406 C 316.710938 1102.265625 296.5625 1092.078125 300.050781 1085.683594 C 304.722656 1077.191406 310.984375 1075.804688 324.132812 1070.394531 C 338.199219 1064.675781 359.304688 1066.285156 363.464844 1066.015625 C 368.539062 1065.613281 375.832031 1062.082031 384.90625 1061.859375 C 400.605469 1061.589844 403.398438 1063.46875 403.398438 1063.46875 L 430.050781 1065.835938 L 481.054688 1066.464844 C 481.054688 1066.464844 490.175781 1065.792969 493.800781 1065.074219 C 497.46875 1064.359375 500.351562 1057.164062 502.359375 1053.722656 C 504.332031 1050.328125 502.273438 1045.320312 502.273438 1045.320312 L 500.753906 1042.949219 L 495.902344 1035.128906 L 486.9375 1020.019531 L 476.984375 1000.175781 C 476.984375 1000.175781 470.480469 986.367188 467.015625 977.292969 C 463.570312 968.261719 461.558594 963.167969 459.277344 953.828125 C 456.882812 944.214844 455.40625 936.441406 455.097656 928.707031 C 454.71875 917.609375 453.980469 908.984375 457.085938 899.910156 "/>
<path style=" stroke:none;fill-rule:nonzero;fill:rgb(100%,100%,100%);fill-opacity:1;" d="M 788.199219 881.496094 C 798.925781 867.730469 799.960938 854.941406 800.585938 836.929688 C 801.074219 823.835938 796.117188 803.65625 796.117188 803.65625 L 795.441406 802.179688 C 795.441406 802.179688 793.5625 799.742188 792.40625 802.960938 C 792.585938 805.800781 792.945312 808.078125 792.945312 808.078125 L 793.566406 834.070312 C 793.566406 834.070312 792.761719 847.167969 788.292969 860.664062 C 780.777344 883.460938 760.835938 893.605469 757.929688 901.832031 C 752.957031 915.460938 775.363281 898.074219 788.199219 881.496094 "/>
<path style=" stroke:none;fill-rule:nonzero;fill:rgb(100%,100%,100%);fill-opacity:1;" d="M 675.683594 923.558594 C 675.683594 923.558594 671.300781 924.808594 671.210938 929.140625 C 671.121094 933.480469 672.28125 937.234375 672.148438 942.460938 C 672.0625 949.125 665.933594 956.808594 669.871094 959.3125 C 676.621094 963.605469 682.433594 933.390625 680.378906 928.921875 C 678.320312 924.445312 676.308594 923.507812 675.683594 923.558594 "/>
<path style=" stroke:none;fill-rule:nonzero;fill:rgb(100%,100%,100%);fill-opacity:1;" d="M 599.925781 1133.046875 C 599.925781 1133.046875 598.671875 1132.378906 596.214844 1133.320312 C 593.800781 1134.253906 593.976562 1136.761719 593.976562 1136.761719 C 593.976562 1136.761719 593.484375 1139.445312 595.453125 1139.714844 C 597.425781 1140.070312 600.640625 1135.242188 600.640625 1134.703125 C 600.640625 1134.167969 599.925781 1133.046875 599.925781 1133.046875 "/>
<path style=" stroke:none;fill-rule:nonzero;fill:rgb(100%,100%,100%);fill-opacity:1;" d="M 528.640625 1183.691406 C 528.640625 1183.691406 527.925781 1184.410156 528.550781 1184.898438 C 529.222656 1185.480469 530.164062 1184.761719 530.164062 1184.761719 C 530.164062 1184.761719 542.460938 1175.15625 549.75 1168.40625 C 557.441406 1161.164062 568.535156 1148.695312 568.535156 1148.695312 C 568.535156 1148.695312 569.292969 1147.757812 568.445312 1146.953125 C 567.546875 1146.148438 565.449219 1147.394531 563.703125 1148.199219 C 562.183594 1149.003906 561.289062 1149.855469 560.128906 1150.796875 C 559.054688 1151.78125 555.386719 1155.535156 555.386719 1155.535156 L 545.902344 1164.742188 L 539.910156 1170.371094 L 534.097656 1175.914062 L 531.683594 1178.6875 C 531.683594 1178.6875 531.054688 1179.761719 530.878906 1180.027344 C 530.699219 1180.339844 530.074219 1181.144531 530.074219 1181.144531 C 530.074219 1181.144531 529.175781 1181.992188 529.175781 1182.261719 C 529.175781 1182.484375 528.910156 1182.707031 528.910156 1182.980469 C 528.820312 1183.332031 528.640625 1183.691406 528.640625 1183.691406 "/>
<path style=" stroke:none;fill-rule:nonzero;fill:rgb(100%,100%,100%);fill-opacity:1;" d="M 507.378906 1197.640625 C 507.378906 1197.640625 506.058594 1196.566406 503.980469 1197.59375 C 501.878906 1198.710938 499.640625 1201.566406 499.460938 1201.886719 C 499.261719 1202.289062 498.121094 1203.808594 498.902344 1205.148438 C 499.6875 1206.488281 502.347656 1204.519531 502.746094 1204.433594 C 503.128906 1204.433594 506.597656 1201.664062 506.597656 1201.664062 C 506.597656 1201.664062 508.609375 1200.410156 507.378906 1197.640625 "/>
<path style=" stroke:none;fill-rule:nonzero;fill:rgb(100%,100%,100%);fill-opacity:1;" d="M 466.660156 1238.847656 C 466.660156 1238.847656 464.914062 1235.632812 462.632812 1236.972656 C 460.351562 1238.3125 459.101562 1238.761719 457 1241.664062 C 456.640625 1242.15625 454.382812 1245.0625 453.980469 1245.820312 C 453.578125 1246.539062 451.320312 1250.832031 455.902344 1251.140625 C 463.777344 1251.585938 458.609375 1246.539062 461.3125 1244.570312 C 463.503906 1243.050781 467.621094 1243.453125 467.664062 1241.84375 C 467.710938 1240.238281 466.660156 1238.847656 466.660156 1238.847656 "/>
<path style=" stroke:none;fill-rule:nonzero;fill:rgb(100%,100%,100%);fill-opacity:1;" d="M 327.128906 1074.179688 C 327.128906 1074.179688 322.414062 1075.347656 322.054688 1076.957031 C 321.675781 1078.652344 324.804688 1080.261719 325.296875 1080.351562 C 325.855469 1080.441406 326.90625 1081.691406 330.058594 1079.542969 C 333.164062 1077.445312 333.03125 1075.65625 333.03125 1075.65625 C 333.03125 1075.65625 334.867188 1073.511719 327.128906 1074.179688 "/>
<path style=" stroke:none;fill-rule:nonzero;fill:rgb(100%,100%,100%);fill-opacity:1;" d="M 403.871094 1071.679688 C 403.871094 1071.679688 403.824219 1069.9375 400.496094 1070.164062 C 397.097656 1070.34375 396.378906 1070.964844 396.289062 1071.503906 C 396.179688 1071.992188 396.472656 1072.84375 399.488281 1073.113281 C 402.550781 1073.292969 403.78125 1073.109375 403.871094 1071.679688 "/>
<path style=" stroke:none;fill-rule:nonzero;fill:rgb(100%,100%,100%);fill-opacity:1;" d="M 476.429688 1073.78125 C 470.324219 1073.734375 472.25 1073.917969 468.496094 1074.09375 C 461.675781 1074.453125 457.960938 1074.179688 451.234375 1073.734375 C 441.792969 1073.109375 427.195312 1070.785156 427.195312 1070.785156 C 427.195312 1070.785156 425.359375 1070.339844 424.621094 1071.546875 C 423.949219 1072.660156 426.410156 1075.253906 428.601562 1075.925781 C 440.5625 1079.636719 441.210938 1079.011719 449.351562 1079.144531 C 453.890625 1079.191406 456.417969 1078.738281 460.9375 1078.472656 C 466.660156 1078.03125 469.320312 1078.921875 475.558594 1077.265625 C 477.1875 1076.863281 478.753906 1073.828125 476.429688 1073.78125 "/>
<path style=" stroke:none;fill-rule:nonzero;fill:rgb(100%,100%,100%);fill-opacity:1;" d="M 517.304688 1061.667969 C 517.304688 1061.667969 516.074219 1060.242188 513.546875 1061.492188 C 511.046875 1062.695312 509.523438 1065.421875 509.523438 1065.421875 C 509.523438 1065.421875 508.339844 1067.296875 510.867188 1067.035156 C 513.324219 1066.675781 515.539062 1065.605469 516.121094 1065.246094 C 516.765625 1064.882812 518.601562 1063.1875 517.304688 1061.667969 "/>
<path style=" stroke:none;fill-rule:nonzero;fill:rgb(100%,100%,100%);fill-opacity:1;" d="M 481.730469 571.316406 C 481.730469 571.316406 498.992188 555.160156 511.355469 533.796875 C 518.6875 521.054688 521.882812 491.398438 515.582031 498.773438 C 512.738281 502.148438 509.296875 517.523438 503.839844 528.921875 C 496.058594 545.144531 479.445312 568.121094 479.445312 568.121094 C 479.445312 568.121094 475.871094 575.765625 481.730469 571.316406 "/>
<path style=" stroke:none;fill-rule:nonzero;fill:rgb(100%,100%,100%);fill-opacity:1;" d="M 412.726562 612.375 C 412.726562 612.375 410.890625 613.804688 411.722656 616.085938 C 412.59375 618.410156 416.105469 616.664062 416.105469 616.664062 C 416.105469 616.664062 424.085938 613.648438 432.449219 613.335938 C 440.835938 612.976562 452.460938 615.480469 452.460938 615.480469 C 452.460938 615.480469 458.003906 617 458.925781 617.355469 C 459.839844 617.738281 462.859375 619.191406 463.375 619.367188 C 463.824219 619.566406 466.707031 620.976562 468.316406 619.523438 C 469.925781 618.046875 458.234375 607.433594 446.292969 605.824219 C 426.414062 603.121094 413.359375 611.679688 413.359375 611.679688 L 412.726562 612.375 "/>
<path style=" stroke:none;fill-rule:nonzero;fill:rgb(100%,100%,100%);fill-opacity:1;" d="M 330.84375 682.347656 C 332.25 683.554688 338.890625 670.90625 344.4375 662.902344 C 348.503906 657.046875 355.933594 647.257812 355.933594 647.257812 C 355.933594 647.257812 359.285156 642.769531 353.609375 645.273438 C 351.304688 646.300781 345 651.105469 340.550781 659.933594 C 336.789062 667.441406 329.367188 681.160156 330.84375 682.347656 "/>
<path style=" stroke:none;fill-rule:nonzero;fill:rgb(100%,100%,100%);fill-opacity:1;" d="M 284.914062 627.390625 C 284.914062 627.390625 283.484375 632.285156 289.210938 638.40625 C 294.976562 644.554688 296.453125 649.625 300.121094 645.960938 C 301.128906 644.957031 296.542969 636.6875 294.21875 634.386719 C 291.824219 632.105469 290.125 630.226562 290.125 630.226562 L 288.628906 629 L 286.703125 627.925781 L 285.609375 627.480469 C 285.609375 627.480469 285.316406 627.210938 284.914062 627.390625 "/>
<path style=" stroke:none;fill-rule:nonzero;fill:rgb(100%,100%,100%);fill-opacity:1;" d="M 266.308594 580.457031 C 266.308594 580.457031 260.09375 581.621094 258.574219 584.636719 C 257.027344 587.65625 265.726562 585.820312 265.726562 585.820312 C 265.726562 585.820312 271.496094 586.132812 271.628906 583.945312 C 271.765625 581.710938 270.894531 581.484375 266.308594 580.457031 "/>
<path style=" stroke:none;fill-rule:nonzero;fill:rgb(100%,100%,100%);fill-opacity:1;" d="M 167.542969 744.050781 C 164.371094 743.132812 163.835938 749.371094 163.40625 751.378906 C 163.050781 753.390625 164.839844 757.414062 165.574219 757.414062 C 166.289062 757.367188 168.816406 753.4375 168.949219 751.515625 C 169.085938 749.550781 170.339844 744.921875 167.542969 744.050781 "/>
<path style=" stroke:none;fill-rule:nonzero;fill:rgb(100%,100%,100%);fill-opacity:1;" d="M 270.113281 865.894531 C 270.113281 865.894531 264.433594 861.402344 263.5625 863.191406 C 262.710938 864.976562 268.234375 872.867188 268.234375 872.867188 C 268.234375 872.867188 269.933594 875.460938 272.550781 874.292969 C 275.121094 873.046875 274.203125 870.183594 274.203125 870.183594 C 274.203125 870.183594 272.460938 866.519531 270.113281 865.894531 "/>
<path style=" stroke:none;fill-rule:nonzero;fill:rgb(100%,100%,100%);fill-opacity:1;" d="M 227.292969 734.128906 C 227.292969 734.128906 225.839844 733.75 225.324219 735.488281 C 224.789062 737.234375 224.835938 740.070312 224.453125 743.511719 C 224.140625 746.195312 225.148438 753.347656 225.148438 753.347656 C 225.148438 753.347656 225.707031 759.023438 226.847656 762.398438 C 228.074219 766.105469 231.339844 771.382812 231.339844 771.382812 C 231.339844 771.382812 232.570312 774.089844 234.089844 773.953125 C 235.585938 773.796875 235.230469 772.03125 235.230469 772.03125 C 235.230469 772.03125 230.46875 753.171875 230.335938 751.25 C 229.773438 744.96875 229.773438 737.324219 229.773438 737.324219 L 229.730469 736.183594 C 229.730469 736.183594 229.683594 734.171875 227.292969 734.128906 "/>
<path style=" stroke:none;fill-rule:nonzero;fill:rgb(100%,100%,100%);fill-opacity:1;" d="M 234.714844 676.582031 C 234.714844 676.582031 232.097656 676.089844 229.6875 681.117188 C 227.25 686.214844 227.765625 688.269531 227.984375 688.492188 C 228.164062 688.71875 230.085938 688.675781 233.175781 683.957031 C 236.238281 679.285156 235.542969 677.496094 235.542969 677.496094 C 235.542969 677.496094 235.363281 676.582031 234.714844 676.582031 "/>
<path style=" stroke:none;fill-rule:nonzero;fill:rgb(100%,100%,100%);fill-opacity:1;" d="M 306.671875 728.71875 C 306.671875 728.71875 309.824219 733.433594 303.789062 732.339844 C 297.730469 731.246094 285.003906 721.210938 279.816406 718.507812 C 274.695312 715.800781 266.265625 714.949219 269.800781 711.78125 C 270.449219 711.242188 270.625 710.726562 271.628906 710.6875 C 272.683594 710.640625 276.171875 712.003906 276.390625 712.160156 C 276.574219 712.246094 285.539062 715.957031 285.871094 716.046875 C 286.1875 716.179688 291.21875 718.328125 294.792969 720.425781 C 298.371094 722.546875 304.183594 726.613281 304.183594 726.613281 L 306.671875 728.71875 "/>
<path style=" stroke:none;fill-rule:nonzero;fill:rgb(100%,100%,100%);fill-opacity:1;" d="M 474.394531 873.046875 C 476.050781 878.230469 455.300781 862.09375 444.1875 853.535156 C 414.738281 830.871094 378.691406 784.410156 383.1875 780.300781 C 386.898438 776.925781 401.675781 798.199219 423.347656 821.640625 C 446.511719 846.628906 473.433594 869.960938 474.394531 873.046875 "/>
<path style=" stroke:none;fill-rule:nonzero;fill:rgb(100%,100%,100%);fill-opacity:1;" d="M 561.015625 850.832031 C 554.578125 857.691406 552.300781 866.476562 556.007812 873.046875 C 559.628906 879.433594 560.75 863.703125 564.777344 859.074219 C 568.265625 855.027344 570.410156 855.679688 576.132812 851.613281 C 585.882812 844.753906 569.160156 842.09375 561.015625 850.832031 "/>
<path style=" stroke:none;fill-rule:nonzero;fill:rgb(100%,100%,100%);fill-opacity:1;" d="M 524.167969 704.179688 C 519.742188 703.464844 519.875 710.191406 520.5 714.953125 C 523.453125 736.269531 533.027344 752.699219 545.8125 768.164062 C 553.597656 777.59375 574.925781 794.402344 577.382812 791.699219 C 578.28125 790.738281 557.082031 774.355469 543.574219 753.304688 C 534.003906 738.378906 528.90625 725.75 527.699219 713.433594 C 527.570312 711.867188 527.925781 704.785156 524.167969 704.179688 "/>
<path style=" stroke:none;fill-rule:nonzero;fill:rgb(100%,100%,100%);fill-opacity:1;" d="M 441.570312 388.191406 C 431.953125 393.398438 415.273438 397.984375 415.273438 397.984375 C 415.273438 397.984375 414.511719 399.636719 416.660156 399.460938 C 430.949219 398.316406 436.402344 396.53125 444.007812 393.175781 C 451.609375 389.894531 457.132812 380.773438 457.132812 380.773438 C 457.132812 380.773438 460.222656 375.097656 454.496094 379.769531 C 452.707031 381.199219 446.847656 385.308594 441.570312 388.191406 "/>
<path style=" stroke:none;fill-rule:nonzero;fill:rgb(100%,100%,100%);fill-opacity:1;" d="M 557.574219 351.566406 C 557.574219 351.566406 554.3125 350.847656 552.121094 352.214844 C 549.925781 353.601562 550.550781 354.695312 550.550781 354.695312 C 550.550781 354.695312 553.953125 357.285156 556.367188 357.714844 C 558.78125 358.070312 563.96875 360.328125 563.792969 358.585938 C 563.566406 356.796875 560.664062 353.601562 559.628906 352.730469 C 558.695312 351.808594 557.574219 351.566406 557.574219 351.566406 "/>
<path style=" stroke:none;fill-rule:nonzero;fill:rgb(100%,100%,100%);fill-opacity:1;" d="M 502.972656 451.6875 C 503.527344 452.828125 513.277344 450.167969 517.039062 448.066406 C 519.96875 446.410156 521.128906 440.867188 521.128906 440.867188 C 521.128906 440.867188 521.933594 435.503906 520.683594 437.582031 C 515.113281 446.683594 502.433594 450.523438 502.972656 451.6875 "/>
<path style=" stroke:none;fill-rule:nonzero;fill:rgb(100%,100%,100%);fill-opacity:1;" d="M 502.660156 426.675781 C 506.597656 419.125 491.859375 434.523438 484.347656 438.5 C 479.761719 440.914062 472.292969 444.128906 472.292969 444.128906 C 472.292969 444.128906 470.324219 446.589844 473.074219 446.363281 C 475.824219 446.183594 482.824219 448.554688 488.503906 444.175781 C 489.847656 443.101562 495.75 434.519531 495.75 434.519531 C 495.75 434.519531 500.777344 430.25 502.660156 426.675781 "/>
<path style=" stroke:none;fill-rule:nonzero;fill:rgb(100%,100%,100%);fill-opacity:1;" d="M 500.378906 458.816406 C 500.6875 460.042969 517.210938 459.640625 521.351562 458.390625 C 524.617188 457.496094 526.402344 451.730469 526.402344 451.730469 C 526.402344 451.730469 528.371094 446.683594 526.671875 448.378906 C 519.183594 456.023438 500.089844 457.585938 500.378906 458.816406 "/>
<path style=" stroke:none;fill-rule:nonzero;fill:rgb(100%,100%,100%);fill-opacity:1;" d="M 234.984375 610.09375 C 234.984375 610.09375 232.480469 609.179688 229.371094 613.847656 C 226.285156 618.496094 212.378906 639.617188 214.835938 642.722656 C 217.765625 646.386719 229.816406 623.859375 233.488281 619.65625 C 237.199219 615.390625 235.675781 611.097656 235.675781 611.097656 C 235.675781 611.097656 235.632812 610.136719 234.984375 610.09375 "/>
<path style=" stroke:none;fill-rule:nonzero;fill:rgb(100%,100%,100%);fill-opacity:1;" d="M 537.941406 990.871094 C 536.421875 997.886719 538.210938 1012.238281 540.628906 1015.050781 C 546.527344 1022.15625 542.90625 1003.921875 543.753906 997.527344 C 544.472656 991.585938 545.1875 989.527344 548.140625 983.179688 C 553.414062 971.738281 541.03125 975.9375 537.941406 990.871094 "/>
<path style=" stroke:none;fill-rule:nonzero;fill:rgb(100%,100%,100%);fill-opacity:1;" d="M 487.183594 380.597656 C 487.183594 380.597656 482.601562 380.730469 479.023438 382.699219 C 475.402344 384.664062 474.503906 387.460938 474.503906 387.460938 C 474.503906 387.460938 473.765625 389.46875 474.261719 390.566406 C 475.3125 392.957031 480.277344 389.335938 483.742188 390.519531 C 486.535156 391.523438 487.878906 392.351562 490.023438 394.921875 C 491.902344 397.160156 495.1875 400.375 497.246094 398.542969 C 499.371094 396.753906 498.589844 392.171875 498.589844 392.171875 C 498.589844 392.171875 496.152344 384.707031 492.957031 382.609375 C 489.734375 380.464844 487.183594 380.597656 487.183594 380.597656 "/>
<path style=" stroke:none;fill-rule:nonzero;fill:rgb(100%,100%,100%);fill-opacity:1;" d="M 411.027344 433.09375 C 411.027344 433.09375 408.453125 433.492188 409.058594 436.621094 C 409.664062 439.683594 411.339844 439.214844 411.339844 439.214844 C 411.339844 439.214844 416.664062 436.933594 416.347656 433.742188 C 415.96875 430.523438 411.027344 433.09375 411.027344 433.09375 "/>
<path style=" stroke:none;fill-rule:nonzero;fill:rgb(100%,100%,100%);fill-opacity:1;" d="M 373.839844 416.421875 C 373.839844 416.421875 371.046875 416.535156 369.078125 419.996094 C 367.15625 423.4375 366.015625 427.015625 366.015625 427.015625 C 366.015625 427.015625 365.097656 431.53125 366.707031 432.960938 C 368.339844 434.367188 370.128906 430.035156 372.472656 428.332031 C 373.878906 427.328125 374.753906 426.882812 376.210938 425.851562 C 378.199219 424.488281 381.441406 426.230469 381.21875 422.210938 C 380.929688 418.160156 376.636719 416.242188 373.839844 416.421875 "/>
<path style=" stroke:none;fill-rule:nonzero;fill:rgb(100%,100%,100%);fill-opacity:1;" d="M 494.003906 373.175781 C 494.003906 373.175781 487.675781 372.261719 487.921875 374.695312 C 488.144531 376.972656 491.347656 375.613281 493.402344 376.53125 C 495.414062 377.445312 496.753906 377.800781 498.363281 379.277344 C 499.550781 380.328125 499.414062 382.382812 500.871094 382.425781 C 502.878906 382.472656 502.480469 381.644531 502.480469 381.644531 C 502.480469 381.644531 500.644531 376.191406 498.253906 374.652344 C 495.882812 373.085938 494.003906 373.175781 494.003906 373.175781 "/>
<path style=" stroke:none;fill-rule:nonzero;fill:rgb(100%,100%,100%);fill-opacity:1;" d="M 564.597656 398.675781 C 563.699219 402.117188 563.164062 403.300781 563.164062 403.300781 C 563.164062 403.300781 561.378906 410.296875 568.441406 407.726562 C 575.507812 405.128906 571.839844 406.226562 576.9375 403.746094 C 581.949219 401.289062 581.859375 402.652344 585.527344 402.832031 C 586.777344 402.875 587.582031 402.917969 589.460938 402.566406 C 591.070312 402.203125 590.398438 400.328125 586.824219 399.367188 C 582.980469 398.359375 578.28125 398.585938 572.828125 398.539062 C 569.609375 398.496094 565.535156 395.234375 564.597656 398.675781 "/>
<path style=" stroke:none;fill-rule:nonzero;fill:rgb(100%,100%,100%);fill-opacity:1;" d="M 567.726562 372.820312 C 567.726562 372.820312 564.503906 372.082031 562.269531 373.46875 C 560.078125 374.828125 560.75 375.925781 560.75 375.925781 C 560.75 375.925781 564.105469 378.585938 566.5625 378.945312 C 568.980469 379.367188 574.164062 381.601562 573.988281 379.816406 C 573.71875 378.074219 570.859375 374.832031 569.828125 373.960938 C 568.800781 373.085938 567.726562 372.820312 567.726562 372.820312 "/>
<path style=" stroke:none;fill-rule:nonzero;fill:rgb(100%,100%,100%);fill-opacity:1;" d="M 580.164062 421.382812 C 580.164062 421.382812 576.714844 420.691406 574.347656 422.007812 C 572.019531 423.304688 572.644531 424.355469 572.644531 424.355469 C 572.644531 424.355469 576.3125 426.816406 578.90625 427.195312 C 581.503906 427.550781 587.046875 429.652344 586.824219 427.976562 C 586.601562 426.324219 583.46875 423.261719 582.4375 422.4375 C 581.410156 421.605469 580.164062 421.382812 580.164062 421.382812 "/>
<path style=" stroke:none;fill-rule:nonzero;fill:rgb(100%,100%,100%);fill-opacity:1;" d="M 581.234375 438.992188 C 581.234375 438.992188 577.5625 438.164062 575.0625 439.683594 C 572.558594 441.183594 573.3125 442.390625 573.3125 442.390625 C 573.3125 442.390625 577.121094 445.273438 579.890625 445.675781 C 582.621094 446.101562 588.523438 448.515625 588.253906 446.589844 C 588.03125 444.671875 584.722656 441.183594 583.558594 440.246094 C 582.484375 439.257812 581.234375 438.992188 581.234375 438.992188 "/>
<path style=" stroke:none;fill-rule:nonzero;fill:rgb(100%,100%,100%);fill-opacity:1;" d="M 582.886719 456.15625 C 582.886719 456.15625 578.90625 455.242188 576.222656 456.9375 C 573.496094 458.632812 574.34375 460 574.34375 460 C 574.34375 460 578.457031 463.214844 581.410156 463.710938 C 584.40625 464.179688 590.800781 466.925781 590.535156 464.757812 C 590.265625 462.613281 586.6875 458.632812 585.4375 457.585938 C 584.273438 456.46875 582.886719 456.15625 582.886719 456.15625 "/>
<path style=" stroke:none;fill-rule:nonzero;fill:rgb(100%,100%,100%);fill-opacity:1;" d="M 582.527344 477.386719 C 582.527344 477.386719 578.550781 476.539062 575.863281 478.214844 C 573.136719 479.867188 573.898438 481.230469 573.898438 481.230469 C 573.898438 481.230469 578.097656 484.445312 581.050781 484.941406 C 584.003906 485.410156 590.398438 488.160156 590.128906 486.011719 C 589.820312 483.84375 586.285156 479.867188 585.078125 478.816406 C 583.824219 477.722656 582.527344 477.386719 582.527344 477.386719 "/>
<path style=" stroke:none;fill-rule:nonzero;fill:rgb(100%,100%,100%);fill-opacity:1;" d="M 579.621094 518.777344 C 579.621094 518.777344 575.597656 517.90625 572.914062 519.605469 C 570.230469 521.28125 571.035156 522.625 571.035156 522.625 C 571.035156 522.625 575.148438 525.863281 578.101562 526.335938 C 581.097656 526.78125 587.496094 529.574219 587.226562 527.382812 C 586.957031 525.238281 583.382812 521.28125 582.128906 520.1875 C 580.917969 519.089844 579.621094 518.777344 579.621094 518.777344 "/>
<path style=" stroke:none;fill-rule:nonzero;fill:rgb(100%,100%,100%);fill-opacity:1;" d="M 582.308594 498.082031 C 582.308594 498.082031 577.746094 497.035156 574.523438 498.996094 C 571.4375 500.917969 572.378906 502.484375 572.378906 502.484375 C 572.378906 502.484375 577.164062 506.238281 580.605469 506.773438 C 584.003906 507.332031 591.429688 510.484375 591.160156 508.027344 C 590.800781 505.503906 586.6875 500.921875 585.257812 499.691406 C 583.824219 498.4375 582.308594 498.082031 582.308594 498.082031 "/>
<path style=" stroke:none;fill-rule:nonzero;fill:rgb(100%,100%,100%);fill-opacity:1;" d="M 577.652344 537.507812 C 577.652344 537.507812 574.34375 536.722656 572.109375 538.128906 C 569.871094 539.515625 570.589844 540.613281 570.589844 540.613281 C 570.589844 540.613281 573.988281 543.316406 576.402344 543.675781 C 578.863281 544.078125 584.097656 546.332031 583.914062 544.546875 C 583.648438 542.757812 580.742188 539.515625 579.714844 538.644531 C 578.730469 537.730469 577.652344 537.507812 577.652344 537.507812 "/>
<path style=" stroke:none;fill-rule:nonzero;fill:rgb(100%,100%,100%);fill-opacity:1;" d="M 574.523438 555.425781 C 574.523438 555.425781 571.839844 554.847656 569.960938 555.988281 C 568.175781 557.125 568.710938 558.042969 568.710938 558.042969 C 568.710938 558.042969 571.527344 560.234375 573.539062 560.566406 C 575.550781 560.878906 579.980469 562.804688 579.800781 561.285156 C 579.621094 559.832031 577.117188 557.125 576.3125 556.390625 C 575.460938 555.652344 574.523438 555.425781 574.523438 555.425781 "/>
<path style=" stroke:none;fill-rule:nonzero;fill:rgb(100%,100%,100%);fill-opacity:1;" d="M 570.679688 571.789062 C 570.679688 571.789062 568.265625 571.230469 566.5625 572.277344 C 564.953125 573.285156 565.402344 574.15625 565.402344 574.15625 C 565.402344 574.15625 567.949219 576.121094 569.785156 576.394531 C 571.621094 576.726562 575.550781 578.402344 575.378906 577.085938 C 575.242188 575.765625 573.050781 573.285156 572.289062 572.636719 C 571.527344 571.96875 570.679688 571.789062 570.679688 571.789062 "/>
<path style=" stroke:none;fill-rule:nonzero;fill:rgb(100%,100%,100%);fill-opacity:1;" d="M 566.832031 585.195312 C 566.832031 585.195312 564.328125 584.636719 562.722656 585.640625 C 561.015625 586.691406 561.511719 587.519531 561.511719 587.519531 C 561.511719 587.519531 564.0625 589.527344 565.894531 589.796875 C 567.730469 590.089844 571.664062 591.808594 571.484375 590.449219 C 571.351562 589.128906 569.160156 586.695312 568.355469 586.042969 C 567.636719 585.375 566.832031 585.195312 566.832031 585.195312 "/>
<path style=" stroke:none;fill-rule:nonzero;fill:rgb(100%,100%,100%);fill-opacity:1;" d="M 562.140625 600.753906 C 562.140625 600.753906 560.171875 600.28125 558.785156 601.109375 C 557.441406 601.980469 557.890625 602.628906 557.890625 602.628906 C 557.890625 602.628906 559.945312 604.242188 561.421875 604.507812 C 562.898438 604.730469 566.117188 606.117188 565.941406 604.996094 C 565.804688 603.949219 564.015625 601.980469 563.4375 601.421875 C 562.808594 600.886719 562.140625 600.753906 562.140625 600.753906 "/>
<path style=" stroke:none;fill-rule:nonzero;fill:rgb(100%,100%,100%);fill-opacity:1;" d="M 556.550781 615.300781 C 556.550781 615.300781 554.847656 614.894531 553.6875 615.609375 C 552.527344 616.347656 552.882812 616.949219 552.882812 616.949219 C 552.882812 616.949219 554.671875 618.3125 555.925781 618.492188 C 557.175781 618.738281 559.949219 619.925781 559.8125 618.964844 C 559.726562 618.046875 558.160156 616.347656 557.667969 615.902344 C 557.082031 615.433594 556.550781 615.300781 556.550781 615.300781 "/>
<path style=" stroke:none;fill-rule:nonzero;fill:rgb(100%,100%,100%);fill-opacity:1;" d="M 550.777344 629.136719 C 550.777344 629.136719 549.03125 628.753906 547.871094 629.492188 C 546.75 630.183594 547.152344 630.765625 547.152344 630.765625 C 547.152344 630.765625 548.855469 632.152344 550.152344 632.375 C 551.449219 632.554688 554.175781 633.738281 554.039062 632.847656 C 553.953125 631.859375 552.386719 630.183594 551.894531 629.714844 C 551.359375 629.265625 550.777344 629.136719 550.777344 629.136719 "/>
<path style=" stroke:none;fill-rule:nonzero;fill:rgb(100%,100%,100%);fill-opacity:1;" d="M 176.421875 699.511719 C 176.421875 699.511719 173.539062 705.097656 174.96875 708.160156 C 176.378906 711.246094 180.265625 703.265625 180.265625 703.265625 C 180.265625 703.265625 184.289062 695.308594 182.660156 693.855469 C 181.003906 692.382812 180.046875 696.492188 176.421875 699.511719 "/>
<path style=" stroke:none;fill-rule:nonzero;fill:rgb(0%,0%,0%);fill-opacity:1;" d="M 583.464844 1417.054688 L 583.464844 1406.195312 C 583.464844 1381.519531 595.945312 1376.695312 632.390625 1376.515625 C 665.933594 1376.695312 677.78125 1380.894531 677.78125 1402.171875 L 677.78125 1484.28125 L 690.167969 1484.28125 L 690.167969 1502.785156 L 608.242188 1502.785156 C 590.980469 1502.785156 579.710938 1490.941406 579.710938 1476.367188 L 579.710938 1459.738281 C 579.710938 1445.390625 587.042969 1432.878906 612.714844 1432.742188 L 644.734375 1432.742188 L 644.734375 1407.753906 C 644.734375 1394.703125 643.839844 1393.140625 630.742188 1393.140625 L 630.605469 1393.140625 C 614.910156 1393.140625 613.878906 1395.195312 613.878906 1407.753906 L 613.878906 1417.050781 L 583.464844 1417.050781 M 621.484375 1446.511719 C 615.042969 1446.511719 611.242188 1451.695312 611.242188 1458.132812 L 611.242188 1474 C 611.242188 1480.394531 613.972656 1485.484375 621.484375 1485.578125 L 633.019531 1485.578125 C 639.371094 1485.578125 644.5625 1483.609375 644.5625 1474 L 644.648438 1446.511719 L 633.734375 1446.511719 C 633.46875 1446.511719 621.484375 1446.511719 621.484375 1446.511719 Z M 621.484375 1446.511719 "/>
<path style=" stroke:none;fill-rule:nonzero;fill:rgb(0%,0%,0%);fill-opacity:1;" d="M 505.542969 1407.445312 L 505.542969 1378.75 L 459.839844 1378.75 L 459.839844 1395.824219 L 472.027344 1395.824219 L 472.027344 1484.234375 L 459.839844 1484.234375 L 459.839844 1502.785156 L 517.085938 1502.785156 L 517.085938 1484.234375 L 505.542969 1484.234375 L 505.542969 1436.859375 C 505.542969 1432.4375 532.488281 1398.421875 532.488281 1402.347656 L 532.488281 1449.414062 L 564.152344 1449.414062 L 564.152344 1396.453125 C 564.152344 1384.339844 556.234375 1376.519531 541.789062 1376.519531 C 524.617188 1376.515625 513.011719 1398.105469 505.542969 1407.445312 "/>
<path style=" stroke:none;fill-rule:nonzero;fill:rgb(0%,0%,0%);fill-opacity:1;" d="M 869.859375 1484.148438 L 869.859375 1378.75 L 823.214844 1378.75 L 823.214844 1395.824219 L 836.277344 1395.824219 L 836.277344 1484.148438 L 823.214844 1484.148438 L 823.214844 1502.785156 L 882.113281 1502.785156 L 882.113281 1484.148438 L 869.859375 1484.148438 "/>
<path style=" stroke:none;fill-rule:nonzero;fill:rgb(0%,0%,0%);fill-opacity:1;" d="M 387.949219 1407.445312 L 387.949219 1378.75 L 342.246094 1378.75 L 342.246094 1395.824219 L 354.433594 1395.824219 L 354.433594 1484.234375 L 342.246094 1484.234375 L 342.246094 1502.785156 L 399.445312 1502.785156 L 399.445312 1484.234375 L 387.949219 1484.234375 L 387.949219 1436.859375 C 387.949219 1432.4375 414.871094 1398.421875 414.871094 1402.347656 L 414.871094 1449.414062 L 446.511719 1449.414062 L 446.511719 1396.453125 C 446.511719 1384.339844 438.640625 1376.519531 424.175781 1376.519531 C 407.042969 1376.515625 395.417969 1398.105469 387.949219 1407.445312 "/>
<path style=" stroke:none;fill-rule:evenodd;fill:rgb(0%,0%,0%);fill-opacity:1;" d="M 324.757812 1462.15625 L 292.695312 1462.15625 L 292.695312 1471.453125 C 292.695312 1484.058594 290.59375 1484.59375 274.960938 1484.773438 L 274.738281 1484.773438 C 256.824219 1484.863281 257.835938 1483.074219 258.035156 1471.453125 L 258.035156 1449.414062 L 324.753906 1449.414062 L 324.753906 1401.542969 C 324.753906 1384.199219 311.652344 1376.914062 277.085938 1376.785156 L 272.121094 1376.785156 C 234.800781 1376.960938 224.875 1385.453125 224.875 1406.910156 L 224.875 1476.992188 C 224.875 1500.589844 238.824219 1504.570312 272.8125 1505.511719 L 276.523438 1505.511719 C 313.621094 1504.660156 324.753906 1502.109375 324.753906 1480.078125 L 324.753906 1462.15625 M 258.394531 1403.332031 C 258.394531 1396.808594 260.363281 1393.585938 267.832031 1393.496094 L 281.894531 1393.496094 C 287.710938 1393.496094 290.949219 1396.089844 290.949219 1400.738281 L 290.949219 1436.632812 L 258.390625 1436.632812 L 258.390625 1403.332031 Z M 258.394531 1403.332031 "/>
<path style="fill:none;stroke-width:0.74;stroke-linecap:butt;stroke-linejoin:miter;stroke:rgb(0%,0%,0%);stroke-opacity:1;stroke-miterlimit:10;" d="M 293.249563 465.731957 L 293.249563 458.009413 " transform="matrix(2.906977,0,0,2.905455,0.491279,0.110407)"/>
<path style=" stroke:none;fill-rule:nonzero;fill:rgb(0%,0%,0%);fill-opacity:1;" d="M 748.3125 1407.445312 L 748.3125 1378.75 L 702.5625 1378.75 L 702.5625 1395.824219 L 714.726562 1395.824219 L 714.726562 1484.234375 L 702.5625 1484.234375 L 702.5625 1502.785156 L 759.800781 1502.785156 L 759.800781 1484.234375 L 748.3125 1484.234375 L 748.3125 1436.859375 C 748.3125 1432.4375 775.1875 1398.421875 775.1875 1402.347656 L 775.1875 1449.414062 L 806.894531 1449.414062 L 806.894531 1396.453125 C 806.894531 1384.339844 798.929688 1376.519531 784.4375 1376.519531 C 767.359375 1376.515625 755.730469 1398.105469 748.3125 1407.445312 "/>
<path style=" stroke:none;fill-rule:nonzero;fill:rgb(0%,0%,0%);fill-opacity:1;" d="M 184.894531 1442.488281 L 184.894531 1425.949219 L 167.074219 1425.949219 L 167.074219 1484.28125 L 197.953125 1484.28125 L 197.953125 1502.785156 L 107.417969 1502.785156 L 107.417969 1484.28125 L 131.5 1484.28125 L 131.5 1353.273438 L 112.585938 1353.273438 L 112.585938 1330.746094 L 817.753906 1330.746094 L 817.753906 1353.273438 L 167.074219 1353.273438 L 167.074219 1405.878906 L 184.894531 1405.878906 L 184.894531 1390.328125 L 205.402344 1390.328125 L 205.402344 1442.488281 L 184.894531 1442.488281 "/>
<path style=" stroke:none;fill-rule:evenodd;fill:rgb(0%,0%,0%);fill-opacity:1;" d="M 835.777344 1329.941406 L 869.40625 1329.941406 L 869.40625 1352.113281 L 835.777344 1352.113281 Z M 835.777344 1329.941406 "/>
</g>
</svg>
