<?xml version="1.0" encoding="UTF-8"?>
<svg xmlns="http://www.w3.org/2000/svg" xmlns:xlink="http://www.w3.org/1999/xlink" width="1000px" height="px" viewBox="0 0 1000 1000" version="1.1">
<g id="surface1">
<path style=" stroke:none;fill-rule:nonzero;fill:rgb(0%,11.764706%,31.372549%);fill-opacity:1;" d="M 500.59375 951.0625 C 252.851562 951.0625 49.878906 747.097656 49.878906 499.351562 C 49.878906 443.632812 59.828125 390.902344 78.730469 341.152344 L 342.394531 871.46875 C 345.382812 878.433594 350.355469 884.402344 358.316406 884.402344 C 366.273438 884.402344 371.25 878.433594 374.234375 871.46875 L 495.621094 599.84375 C 496.613281 596.859375 498.605469 593.875 501.589844 593.875 C 504.574219 593.875 505.570312 596.859375 507.558594 599.84375 L 628.945312 871.46875 C 631.929688 878.433594 636.90625 884.402344 644.863281 884.402344 C 652.824219 884.402344 657.796875 878.433594 660.785156 871.46875 L 924.449219 341.152344 C 943.351562 390.902344 953.300781 443.632812 953.300781 499.351562 C 951.3125 747.097656 748.339844 951.0625 500.59375 951.0625 Z M 500.59375 396.871094 C 497.609375 396.871094 496.613281 393.886719 494.625 390.902344 L 353.339844 72.515625 C 399.109375 55.601562 448.855469 46.644531 500.59375 46.644531 C 552.332031 46.644531 602.082031 55.601562 647.847656 72.515625 L 506.566406 390.902344 C 504.574219 394.882812 503.578125 396.871094 500.59375 396.871094 Z M 356.324219 724.214844 C 353.339844 724.214844 352.347656 721.226562 350.355469 718.242188 L 121.515625 256.582031 C 162.308594 193.898438 217.03125 141.167969 283.695312 104.351562 L 448.855469 471.492188 C 450.847656 477.464844 455.820312 479.453125 460.796875 479.453125 L 540.394531 479.453125 C 546.363281 479.453125 550.34375 478.457031 553.328125 471.492188 L 718.492188 104.351562 C 784.160156 141.167969 839.875 193.898438 880.667969 256.582031 L 649.839844 718.242188 C 648.84375 721.226562 646.855469 724.214844 643.867188 724.214844 C 640.882812 724.214844 639.890625 721.226562 637.898438 718.242188 L 551.335938 521.242188 C 548.351562 514.277344 544.375 513.28125 538.402344 513.28125 L 458.804688 513.28125 C 452.835938 513.28125 448.855469 514.277344 445.871094 521.242188 L 362.296875 718.242188 C 361.300781 721.226562 359.3125 724.214844 356.324219 724.214844 Z M 500.59375 996.832031 C 776.199219 996.832031 998.074219 774.957031 998.074219 499.351562 C 998.074219 223.75 776.199219 1.871094 500.59375 1.871094 C 224.992188 1.871094 3.113281 223.75 3.113281 499.351562 C 3.113281 774.957031 224.992188 996.832031 500.59375 996.832031 Z M 500.59375 996.832031 "/>
</g>
</svg>
